<svg id="Layer_1" data-name="Layer 1" xmlns="http://www.w3.org/2000/svg" viewBox="0 0 531 570"><defs><style>.cls-1{fill:#808184;fill-rule:evenodd;}.cls-2{fill:#fff;}.cls-3{fill:#032f70;}.cls-4{fill:#231f20;}.cls-5{fill:#00a551;}.cls-6{fill:#ec1c24;}.cls-7{font-size:11.28px;fill:#001a63;font-family:Shorooq_N1;}</style></defs><title>icons</title><path class="cls-1" d="M437.73,486.4V467.25l10.61,9.62-10,10.2-.59-.67Zm0-29.6V444.66l6.17,4.8-6.17,7.34Zm0-31.08v-2.53l1.19.86-1.19,1.67Zm0-50.54v-3.61l2,2.94-2,.67Zm0-12v-9.93l1.85.46,5.45,6.6-7.3,2.87Zm0-13.61v-9.79l11.74,2.12-2,10.08-9.75-2.41Zm0-14.53v-9.54l14.4,1.68-1.25,10.19L437.73,335Zm0-13.2v-9.41l15.53.87-.6,10.28-14.93-1.74Zm0-14v-9.48l15.24-.8.08,10.41-15.32-.13Zm0-13.54v-9.61l14.66-1.8.79,10.41-15.45,1Zm0-14v-9.74l12.86-2.21,1.34,10.34-14.2,1.61Zm0-14.47v-10l9.35-2.34,2.07,10.27-11.42,2.08Zm0-13.74v-9.81l6.89,2.8-5.44,6.67-1.45.34Zm0-19.27v-2.67l1.52.46-1.52,2.21Zm0-52.15v-.87l.46.6-.46.27Zm0-21.94V148.25l5.24,6.33-5.24,4.14Zm0-23.2V117l9.48,9.81-9.48,8.74Zm17.72,202.37,18.18,3.21,1.4-11.4-18.32-2.13-1.26,10.32Zm1.72-14.13,18.39,2.13.72-11.46-18.44-1-.67,10.34ZM479.75,326,494.81,328l.74-12.67-15.07-.73L479.75,326Zm-24.64-58.21,18.2-3.14,1.45,11.53-18.32,2.07-1.33-10.46ZM457,282.61l18.32-2.26.85,11.61-18.38,1.19L457,282.61Zm22.49-2.46,14.94-2.06,1,12.86-15.07.8-.88-11.6Zm-22,17.47,18.44-1,.06,11.61-18.44-.13-.06-10.48Zm22.63-.87,15.07-1,.08,12.81-15.08-.2-.07-11.61Zm19.8-1,16.79-1.13.12,14.47-16.78-.27ZM437.73,117v18.55l-2.94,2.73-5.3-5.47v-8l7.71-8.33.53.53Zm0,31.28v10.47L431,164l-1.53-1.87V149.65l5.3-4.94,2.94,3.54Zm0,31.54v.87l-8.24,5.6V172.39l2-1.54,6.25,8.94Zm0,50.35v2.67l-3.13,4.66-5.11,1.8V228.4l1.32-.6,6.92,2.34Zm0,12.13v9.81l-7.91,2-.33-1.12v-8.74l6.83-2.47,1.41.53Zm0,13.54v10l-5.05.92-1.79-9.26,6.84-1.67Zm0,14.74v9.74l-2.4.26-1.19-9.33,3.59-.67Zm0,14.13v9.61l-1.14.07-.72-9.41,1.86-.27Zm0,13.67v9.48H436.4l-.08-9.4,1.41-.08Zm0,14.07v9.41l-1.68-.21.54-9.27,1.14.07Zm0,13.07V335l-3.33-.53,1.13-9.27,2.2.26Zm0,14.28v9.79L431.22,348,433,338.9l4.72.87Zm0,13.47v9.93l-1,.33-7.23-2.6v-7.13l.67-2.4,7.57,1.87Zm0,18.33v3.61l-6.38,2.06-1.86-.87V365.71l5.57,2,2.67,3.86Zm0,51.62v2.53l-5.39,7.67-2.85-2.2V417.65l8.24,5.54Zm0,21.47V456.8l-1.93,2.33-6.31-5.74V443.06l2.46-2.93,5.78,4.53Zm0,22.59V486.4l-8.24-8.8V472l6.31-6.47,1.93,1.72Zm-8.24-2.05V460l2.71,2.47-2.71,2.73Zm0-75.82v-7.47l3.45,6.66-3.45.81Zm0-55.55V324.7L432,325l-1.14,9.14-1.32-.27Zm0-12.67v-9.07l3.52.2-.6,9.21-2.92-.34Zm0-13.47v-9.13l3.24-.13.08,9.26Zm0-13v-9.19l2.71-.34.74,9.33-3.45.2Zm0-13.6v-9.33l1.06-.2,1.2,9.27-2.26.26Zm0-59.14V215.6l2.92.67-2.92,5.67Zm0-79v-3.34l1.73,1.81Zm0-18.14v8l-2.93-3V128l2.93-3.21Zm0,14.8v3.34l-2.93,2.68v-9l2.93,3Zm0,10.08v12.47l-2.93-3.53v-6.21l2.93-2.73Zm0,22.74v13.87l-2.93,2v-13.6l2.93-2.27Zm0,43.21v6.34l-.87,1.73-2.06.93v-9.67l2.93.67Zm0,12.8v10.87l-2.93,1.07V229.8l2.93-1.4Zm0,15.81V253L427.22,245l2.27-.8Zm0,27.54v9.33l-2.93.34v-9.14l2.93-.53Zm0,13.74v9.19l-2.93.21v-9l2.93-.39Zm0,13.07v9.13l-2.93-.06v-8.88l2.93-.19Zm0,13.53v9.07l-2.93-.33V312l2.93.13Zm0,12.61v9.13l-2.93-.47v-9l2.93.34Zm0,29.07v7.13l-1.86-.67,1.86-6.46Zm0,11.94v10.66L426.56,375V364.71l2.93,1Zm0,16.2v7.47l-2.93.66v-9.92l2.6,1.12.33.67Zm0,35.74v13.54l-2.93-2.2V415.72l2.93,1.93Zm0,25.41v10.33l-2.93-2.66v-4.21l2.93-3.46Zm0,16.94v5.2l-2.93,2.93v-10.8l2.93,2.67Zm0,12v5.6l-2.72-2.86,2.72-2.74Zm-2.93-32v-3.93l2,1.53-2,2.4Zm0-39.35v-3.39l1.52.86-1.52,2.53Zm0-49.87v-.26h.07l-.07.26Zm0-3.67v-9.27l2.86.53-1.73,9-1.13-.27Zm0-79.42v-9.4l.74-.2,1.79,9.2-2.53.4Zm0-60.54v-2l.87,1.47-.87.54Zm0-39.69v-2.26l1.2,1.33Zm0-39.47v1.8l-.85-.86.85-.94Zm0,8.6v9l-6.5,6.06-1.46-1.47V136.12l3.65-3.94,4.31,4.4Zm0,15.8v6.21l-2.92-3.54,2.92-2.67Zm0,12.81-6.23-7.6-1.73,1.53v14.74l8-6.41v-2.26Zm0,9.47v13.6l-3.72,2.53-4.24-6v-4l8-6.13Zm0,30.47v2l-8,4.53V200l3.58-2.34,4.38,7.47Zm0,9.8v9.67l-7.17,3.2-.79-1.59v-8.74l5.44-3.14,2.52.6Zm0,14.87v10.54l-1.33.46-3.38-8.8,4.71-2.2Zm0,28.48v9.4l-8,1.47v-8.94l8-1.93Zm0,14v9.14l-8,.86v-8.6l8-1.4Zm0,13.6v9l-8,.47v-8.47l8-1Zm0,12.87v8.88l-8-.07v-8.4l8-.41Zm0,13.21v8.87l-8-.94V311.5l8,.46Zm0,12.4v9l-8-1.46v-8.47l8,.93Zm0,13.47v9.27l-8-1.94v-8.79l8,1.46Zm0,12.68v.26l-2.45,8.54-5.51-1.87v-9.13l8,2.2Zm0,14.2V375l-4.25-2,3.4-8.67.85.34Zm0,15.41V390l-1.92.41-6-3.4v-7.27l1.33-2.6,6.63,2.94Zm0,17.13v3.39l-3.72,6.28-4.24-2.74v-11.4l8,4.47Zm0,18.47V429l-8-6.07v-2.26l5-6.94,3,2Zm0,20.34V440l-5.31,6.4-2.65-2.33V429.73l8,6.33Zm0,10.46v4.21l-2-1.81,2-2.4Zm0,10.81v10.8l-3.24,3.33-4.72-5v-11.8l2.4-2.4,5.56,5.07Zm-8-44.61v-2.19l1.06.72-1.06,1.47Zm0-41.08V361.9l3.65,1.34-3.32,8.59-.33-.19Zm0-114.63v-9.33l5.12-1.73,2.58,8.93L418.6,257Zm0-13.86v-9.48l3.19,8.27-3.19,1.21Zm0-49.62v-.8l.39.53Zm0-57.41v14.06l-2.39-2.46v-9l2.39-2.59Zm0,23v14.74l-2.39,1.94V161.32l2.39-2.2Zm0,21.67v4l-1.8-2.6,1.8-1.4Zm0,11.94v.8l-2.39,1.6v-5.87l2.39,3.47Zm0,7.27v11.67L416.21,213V201.53L418.6,200Zm0,17.47v8.74l-2.39-4.94V218.8l2.39-1.33Zm0,16.2v9.48l-2.39.85v-9.73l2.26-1,.13.4Zm0,14V257l-2.39.66v-9.2l2.39-.79Zm0,12.53v8.94l-2.39.47v-8.81l2.39-.6Zm0,13.47v8.6l-1.19.14-1.07-8.34,2.26-.4Zm0,13.21v8.47h0l-.67-8.4.67-.07Zm0,12.27v8.4h-.19l-.07-8.4Zm0,12.34v8.39l-.52-.07.52-8.32Zm0,11.93v8.47l-2-.34,1-8.26,1,.13Zm0,12.94v8.79l-2.39-.6V336l2.39.41Zm0,11.94v9.13l-2.39-.8v-9l2.39.67Zm0,13.59v9.74l-2.39-1V361l2.39.86Zm0,17.88v7.27l-2.39-1.34v-1l2.39-4.93Zm0,13v11.4l-2.39-1.53V391.38l2.39,1.4Zm0,17.75v2.19l-2.39,3.4v-7.21l2.39,1.62Zm0,10.13v2.26l-1.06-.8,1.06-1.46Zm0,9.07v14.33l-2.39-2.14V427.85l2.39,1.88Zm0,24.93v11.8l-2.39-2.59v-6.8l2.39-2.41Zm-2.39,21.74v-.93l.46.53-.46.4Zm0-25.28v-3.19l1.66,1.53-1.66,1.66Zm0-74.61v-.94l.4.14-.4.8Zm0-221.39v-1.4l.72.73-.72.67Zm0-26.41v-.93l.46.4Zm0-.93v.93l-.8.87V127l.8.74Zm0,10.93v9l-.8-.87v-7.21l.8-.93Zm0,15v1.4l-.8.8v-3.07l.8.87Zm0,7.6V175.8l-.8.59V162.05l.8-.73Zm0,27.94v5.87l-.8.53v-7.53l.8,1.13Zm0,12.27V213l-.8.47V202.06l.8-.53Zm0,17.27v2.47l-.8-1.67v-.33l.8-.47Zm0,15.47V244l-.8.34V234.6l.8-.33Zm0,14.2v9.2l-.8.21v-9.14l.8-.27Zm0,12.34v8.81l-.8.13V261l.8-.2Zm0,75.15v8.6l-.8-.19v-8.61l.8.2Zm0,11.68v9l-.8-.27v-8.93l.8.2Zm0,13.4v9.6l-.8-.4V360.7l.8.34Zm0,14.53v.94l-.8,1.66v-3l.8.39Zm0,9.14v1l-.4-.2.4-.8Zm0,6.67v11.27l-.8-.53v-11.2l.8.46Zm0,17.53v7.21l-.8,1.2v-8.94l.8.53Zm0,18.94v14.07l-.8-.73v-14l.8.66Zm0,20.08v3.19l-.8.81v-4.74l.8.74Zm0,9.14v6.8l-.8-.87v-5.08l.8-.85Zm0,18.4v.93l-.8.67v-2.54l.8.94Zm-.8-245.86V227.8l.66,1.47Zm0-102.57v2.54l-6.5,7.33V121.32l6.5,5.72Zm0,12.6v7.21L412,143.31l3.45-3.67Zm0,13.21-6.5-6.66V162l6.5-6.07v-3.07Zm0,9.2v14.34l-2.12,1.74-4.38-5.27V168l6.5-5.94Zm0,26.08v7.53l-6.5,4.47v-12.2l4.12-3.2,2.38,3.4Zm0,13.93v11.41l-2.51,1.46-4-6.87v-1.73l6.5-4.27Zm0,17.21v.33l-.13-.27.13-.06Zm0,8.53v1.81l-6.5,3.06V222.6l3.11-1.73,3.39,6.93Zm0,6.8v9.74l-6.5,2.4v-9.27l6.5-2.87Zm0,14.14v9.14l-3.05.8L410,250.61l5.38-1.87Zm0,12.27v8.74l-.46.07-1.66-8.27,2.12-.54Zm0,74.75v8.61l-1.79-.47,1.6-8.14Zm0,11.68v8.93l-5-1.67,2.25-8,2.72.74Zm0,13.26v9.54l-6.5-2.87V358.3l6.5,2.4Zm0,14.48v3L412.55,384l-3.64-2V372.1l6.5,3.08Zm0,15.74v11.2l-6.5-4.21v-.33l4.58-7.73,1.92,1.07Zm0,17.46v8.94l-1.66,2.26-4.84-3.66V404l6.5,4.4Zm0,18.81v14l-6.5-5.8v-3.13l5.11-6.14,1.39,1.07Zm0,20v4.74l-5.57,5.72-.93-1V441.19l6.5,6Zm0,10.73V463L413,460.4l2.46-2.48Zm0,16.61v2.54l-6.5,5.79V467.19l6.5,7.34Zm-6.5-49.34v-3l1.45,1.2-1.45,1.8Zm0-34.68,1.39-2.33-1.39-.8v3.13Zm0-45.21v-.07h0v.07Zm0-1.8v-9.33l2.38.47-1.72,9-.66-.13Zm0-12.54v-9.07l4.71.53-1.13,9.14-3.58-.6Zm0-11.47v-8.94l5.64.34-.53,9.2-5.11-.6Zm0-11.6V299l5.37-.25.06,9.26-5.43-.07Zm0-11.53v-9l5-.67.66,9.34-5.64.33Zm0-12.54v-9.2l3.32-.6,1.19,9.26-4.51.54Zm0-12.47v-9.47l.33-.13L411,271l-2.13.4Zm0-54.28V215.2l.78,1.4-.78.47Zm0-35.61V180l.73.93Zm0-60.14v15.59l-2.26,2.54-5.12-4.54v-7.53l5.72-7.54,1.66,1.48Zm0,24.87V162l-5.51,5.13-1.87-1.87v-11.4l7.3-7.73.08.07Zm0,21.8v4.87l-2.33-2.81,2.33-2.06Zm0,12v1.47l-7.38,5.87V174.19l1.47-1.27,5.91,7.07Zm0,7.94v12.2l-3.79,2.53-3.59-5.06v-4l7.38-5.66Zm0,18.4v1.73l-.79-1.26.79-.47Zm0,8.87v1.87l-7.38,4.2V210.8l3.46-2.2,3.92,6.6Zm0,7.4v10.07L403,235.4l-1.47-3v-5.8l7.38-4Zm0,14.87v9.27l-.66.2-3-7.87,3.65-1.6Zm0,24.41v9.47l-7.38,1.27v-8.94l7.38-1.8Zm0,12.74v9.2l-7.38.8v-8.74l7.38-1.26Zm0,12.74v9l-7.38.46v-8.53l7.38-.93Zm0,11.59v8.94l-7.38-.06v-8.48l7.38-.4Zm0,11.6v8.94l-7.38-.87v-8.39l7.38.32Zm0,11.34V331l-7.38-1.33v-8.54l7.38.8Zm0,12.28v9.33l-7.38-1.8v-8.87l7.38,1.34Zm0,11.06-7.38-2v9.21l4.85,1.6,2.53-8.74v-.07Zm0,13.07v9.07l-3.25-1.4,3-7.74.27.07Zm0,13.8V382l-7.38-4v-4.46l1.93-3.94,5.45,2.53Zm0,15.28v3.13l-3.32,5.54-4.06-2.6V383.24l7.38,4.14Zm0,10.2v.33l-.13-.06.13-.27Zm0,6.4v11.94l-7.38-5.6v-2.47l4.26-5.94,3.12,2.07Zm0,18.21v3l-5.13,6.07-2.25-2V416.39l7.38,5.8Zm0,10.07v3.13l-1.53-1.33,1.53-1.8Zm0,8.93v15.48l-7.38-7.61v-9.47l2.73-2.67,4.65,4.27Zm0,26v15.67l-1.66,1.48-5.72-7.54v-7.54l5.12-4.53,2.26,2.46Zm-7.38-3.52V459l2.33,2.66-2.33,2Zm0-62.09v-2.4l1.21.8-1.21,1.6Zm0-36.61v-9.74L405,356.5,401.67,365l-.14-.06Zm0-102.89,7-1.94L406,251.21l-4.47,1.46v9.41Zm0-12.2V240.8l3.06,7.94-3.06,1.14Zm0-44.95v-1.07l.54.74-.54.33Zm0-59.75v-4.73l2.33,2.07Zm0-17.8v7.53l-1.65-1.46v-3.87l1.65-2.2Zm0,13.07v4.73l-1.65,1.87V139l1.65,1.47Zm0,13.4v11.4l-1.65-1.73v-7.93l1.65-1.74Zm0,20.34v13.14l-1.65,1.33V175.73l1.65-1.54Zm0,19.4v4l-1.65-2.4v-.34l1.65-1.27Zm0,10.27v1.07l-1.65,1.13v-4.53l1.65,2.33Zm0,6.94v10.47l-1.65.93V211.94l1.65-1.14Zm0,15.8v5.8L399.88,229v-1.47l1.65-.94Zm0,14.2v9.08l-1.65.6v-9.87l1.39-.6.26.79Zm0,11.87v9.41l-1.65.47v-9.27l1.65-.61Zm0,11v8.94l-1.65.33v-8.87l1.65-.4Zm0,12.2v8.74l-1.65.2v-8.61l1.65-.33Zm0,12.41v8.53l-1.12.06-.53-6.26v-2.13l1.65-.2Zm0,11.06v8.48h-1.38l-.06-8.41,1.44-.07Zm0,10.88v8.39l-1.65-.19v-.94l.46-7.33,1.19.07Zm0,10.86v8.54l-1.65-.27V320.9l1.65.19Zm0,11.74v8.87l-1.65-.4v-8.74l1.65.27Zm0,10.4v9.21l-1.65-.61v-9.07l1.65.47Zm0,12V365l-1.65-.73v-9.6l1.65.59Zm0,18.28V378l-1.65-.86v-.27l1.65-3.33Zm0,9.73v10.21l-1.65-1.07V382.31l1.65.93Zm0,15.94v2.4l-1.65,2.34v-5.81l1.65,1.07Zm0,8.67v2.47l-1.12-.87,1.12-1.6Zm0,8.54v12.86l-1.65-1.47V415.12l1.65,1.27Zm0,23.2v9.47l-1.65-1.73v-6l1.65-1.73Zm0,19.41v4.67l-1.65,1.53v-8.13l1.65,1.93Zm0,10.26v7.54l-1.65-2.27v-3.8l1.65-1.47Zm-1.65-34.47v-1.73l.93.8-.93.93Zm0-67.08v-.27l.14.07-.14.2Zm0-197.45v-.14l.14.07Zm0-40.68v3.87l-.46-.41v-2.86l.46-.6Zm0,9.4v8.07l-.46.54v-9l.46.4Zm0,16.61v7.93l-.46-.47v-6.93l.46-.53Zm0,14.53v.14l-.46.46v-1.07l.46.47Zm0,5.61v12.93l-.46.4V176.12l.46-.39Zm0,19.13v.34l-.13-.2.13-.14Zm0,6.67v4.53l-.46.34v-5.54l.46.67Zm0,10.41V222.2l-.46.27V212.19l.46-.25Zm0,15.6V229l-.46-.94v-.27l.46-.26Zm0,13.07v9.87l-.46.2v-9.81l.46-.26Zm0,12.67v9.27l-.46.14v-9.28l.46-.13Zm0,10.8V273l-.46.07v-8.81l.46-.13Zm0,12.13v8.61l-.46.07v-8.61l.46-.07Zm0,12.28v2.13l-.13-2.13Zm0,29v.94h-.06l.06-.94Zm0,3.41v8.46l-.46-.13v-8.07l.06-.33.4.07Zm0,11.66v8.74l-.46-.13v-8.68l.46.07Zm0,10.2v9.07l-.46-.14v-9.06l.46.13Zm0,11.88v9.6l-.46-.19v-9.61l.46.2Zm0,12.8v.27l-.46.93v-1.4l.46.2Zm0,9.4v.27l-.06-.07.06-.2Zm0,5.47v10.07l-.46-.28V382l.46.27Zm0,15.8v5.81l-.46.66v-6.8l.46.33Zm0,17v12.66l-.46-.46V414.71l.46.41Zm0,17.94v1.73l-.46.47v-2.67l.46.47Zm0,8.26v6l-.46-.47v-5.07l.46-.47Zm0,15.75v8.13l-.46.4v-9.07l.46.54Zm0,13.66v3.8l-.46-.61v-2.79l.46-.4Zm-.46-233.13v-.34l.13.28Zm0-107.42V133l-.53-.53v-1.6l.53-.73Zm0,8.4v9l-.53.66V138.12l.53.46Zm0,17.54v6.93l-.53-.53v-5.87l.53-.53Zm0,13.53v1.07l-.53.54v-2.2l.53.59Zm0,6.47v12.94l-.53.4V176.59l.53-.47Zm0,24.74v5.54l-.53.4v-6.74l.53.8Zm0,11.33v10.28l-.53.27V212.6l.53-.41Zm0,15.61v.27l-.07-.2.07-.07Zm0,9.46v.34l-.53.21v-1.6l.53,1Zm0,3.61v9.81l-.53.2v-9.8l.53-.21Zm0,12.54v9.28l-.53.13v-9.21l.53-.2Zm0,10.8V273l-.53.13v-8.81l.53-.13Zm0,12.07v8.61h-.15l-.38-3.21v-5.33l.53-.07Zm0,44.88v8.07l-.53-.07v-3.6l.53-4.4Zm0,11.33v8.68l-.53-.14v-8.66l.53.12Zm0,10.14v9.06l-.53-.19v-9l.53.14Zm0,11.81v9.61l-.53-.21v-9.6l.53.2Zm0,12.8v1.4l-.53,1.06V367l.53.27Zm0,14.8V392.1l-.53-.39v-9.94l.53.27Zm0,15.74v6.8l-.53.8v-8l.53.4Zm0,16.93v12.61l-.53-.46V414.33l.53.38Zm0,17.88v2.67l-.53.6v-3.74l.53.47Zm0,9.2v5.07l-.53-.6v-3.94l.53-.53Zm0,14.74v9.07l-.53.46V455.93l.53.6Zm0,14.6v2.79l-.53-.72v-1.6Zm-.53-340.22v1.6l-.73-.6.73-1Zm0,7.21v10.13l-5,5.73V136.85l1.46-1.87,3.52,3.14Zm0,18.53v5.87l-2.79-2.87,2.79-3Zm0,12.41v2.2l-5,4.66v-12l5,5.14Zm0,7.53v12.87l-2.33,1.94-2.65-3.27v-7l5-4.54Zm0,23.47v6.74l-5,3.4v-11l2.84-2.21,2.14,3.07Zm0,12.54v10.14l-1.73,1-3.25-5.53v-2.33l5-3.27Zm0,23.61v1.6l-5,2.39V230l1.52-.88,3.46,7.08Zm0,4.87v9.8l-5,1.79v-9.39l5-2.2Zm0,12.53v9.21l-4.06,1.06-.92-3.34v-5.2l5-1.73Zm0,10.73v8.81l-1.86.33-1.66-8.34,3.52-.8Zm0,12v5.33l-.67-5.2.67-.13Zm0,49.21v3.6l-.41-.07.41-3.53Zm0,6.81V341l-3.2-.8,1.54-8.13,1.66.27Zm0,10.12v9l-5-1.66v-4l1.26-4.32,3.72,1Zm0,11.75v9.6l-5-2.21v-9.26l5,1.87Zm0,12.73v2.73l-3,6.07-2-1.12v-10l5,2.33Zm0,14.8v9.94l-5-3.2v-1.06l3.78-6.41,1.2.73Zm0,15.61v8l-1.47,2.07-3.51-2.67V394.05l5,3.33Zm0,16.95v12.53l-5-4.47V417l3.32-4,1.66,1.35Zm0,17.79v3.74l-5,5.06V427.45l5,4.67Zm0,10.2v3.94l-1.93-2,1.93-1.93Zm0,13.61v10.13l-3.52,3.14-1.46-1.95V450.2l5,5.73Zm0,15.67v1.6l-.73-.93.73-.67Zm-5-60.21v-.94l.4.4-.4.54Zm0-31.88v-1.08l.4.27Zm0-242.66V154l-.53.6v-17l.53-.73Zm0,27.07v12l-.53.47v-13l.53.53Zm0,17.21v7l-.53-.61v-5.93l.53-.46Zm0,18.07v11l-.53.33V199.6l.53-.4Zm0,16.67v2.33l-.53-.87V216.2l.53-.33Zm0,14.14V240.2l-.53.27V230.28l.53-.27Zm0,13.27v9.39l-.53.21v-9.34l.53-.26Zm0,12.06v5.2l-.53-1.79v-3.27l.53-.14Zm0,90.49v4l-.53-.2V347.7l.53-1.87Zm0,6.54v9.26l-.53-.25v-9.15l.53.14Zm0,12.27v10l-.53-.34v-9.87l.53.2Zm0,13.79v1.08l-.53.87v-2.21l.53.26Zm0,9v1.06l-.48-.33.48-.73Zm0,6.6v10.73l-.53-.4V393.72l.53.33Zm0,16.4v.94l-.53.59v-1.93l.53.4Zm0,6.54v5.4l-.53-.48v-4.26l.53-.66Zm0,10.46v13.47l-.27.27-.26-.27V427l.53.46Zm0,22.75v17.05l-.53-.66v-17l.53.61Zm-.53-223.8v-1.06l.46.8-.46.26Zm0-32.61v-.6l.26.34Zm0-56.21v17l-.61.61V138.25l.61-.67Zm0,25.81v13l-.61.53V162.78l.61.61Zm0,18.2v5.93l-.61-.66v-4.73l.61-.54Zm0,11.6v.6l-.61.4v-1.66l.61.66Zm0,6.41v10.93l-.61.4V200l.61-.4Zm0,16.6v1.13l-.47-.8.47-.33Zm0,9.14v1.06l-.61.27V224.4l.61.94Zm0,4.94v10.19l-.61.2V230.6l.61-.32Zm0,13.26v9.34l-.61.2v-9.27l.61-.27Zm0,11.94v3.27l-.61-1.94v-1.13l.61-.2Zm0,92.22v1.94l-.54-.14.54-1.8Zm0,4.53v9.15l-.61-.21V352l.61.2Zm0,12.21v9.87l-.61-.27v-9.87l.61.27Zm0,13.73v2.21l-.61.93v-3.46l.61.32Zm0,15.55v10.66l-.61-.4V393.32l.61.4Zm0,16.33V412l-.61.67v-3l.61.4Zm0,7.6v4.26l-.61-.46v-3.2l.61-.6Zm0,9.34v13.93l-.61-.6V426.45l.61.54Zm0,22.6v17l-.61-.72V448.92Zm-.61-311.34v16.94l-1,1.2-5-4.54v-5.73l6-7.87Zm0,24.53v14.14l-5,4.74-1.05-1.07V169.12l6-6.4v.06Zm0,19.35v4.73l-2.18-2.74,2.18-2Zm0,10.4-5-6.14-1,.87v11.8l6-4.87v-1.66Zm0,7.47v10.93l-2.65,1.8-3.38-4.86v-3.14l6-4.73Zm0,24.4v2.27l-6,3.47V219.67l2.39-1.6,3.64,6.33Zm0,6.2v10.07l-6,2.93v-9.67l6-3.33Zm0,13.21v9.27l-1.53.6-3.05-7.88,4.58-2Zm0,11.87v1.13l-.25-1,.25-.13Zm0,96.35v9.14l-4.18-1.86,3-7.74,1.18.46Zm0,12.14V374l-6-3.33v-8.6l.33-.67,5.7,2.73Zm0,13.68v3.46l-3.11,5.34-2.92-1.94V374.44l6,3.41Zm0,15.47V404l-6-4.67v-1.79l3.91-5.61,2.12,1.41Zm0,16.33v3l-4.31,5.2-1.72-1.53V404.85l6,4.8Zm0,8.6v3.2l-1.46-1.33,1.46-1.87Zm0,8.2v13.87l-6-6.32v-9.69l1.79-1.79,4.24,3.93Zm0,22.47v16.95l-6-7.88v-5.66l5-4.54,1,1.13Zm-6,27.21,5.5-4.4-5.5-6.94v11.34Zm0-29.87v-4.14l2,2.33-2,1.81Zm0-55.75v-1.73l.79.53-.79,1.2Zm0-175v-.6l.26.41-.26.19Zm0-53.54v-4.08l2,1.81-2,2.27Zm0-22.61,5.5-7-5.5-4.4Zm0-11.4v11.4l-2.85,3.53v-17.2l2.85,2.27Zm0,18.14v5.73l-2.66-2.34,2.66-3.39Zm0,11.79V162l-2.85,3.26v-9.8l2.85,2.46Zm0,11.21v11.47l-2.85-2.94v-5.53l2.85-3Zm0,18.14v11.8l-2.85,2.27V189.86l2.85-2.6Zm0,17.47v3.14l-1.46-2,1.46-1.13Zm0,10.2v.6l-2.85,1.94v-6.54l2.85,4Zm0,4.74v10.47l-2.85,1.66V221.53l2.85-1.86Zm0,14.26v9.67h-.07L383.89,238v-2.47l2.85-1.61Zm0,128.18v8.6l-2.85-1.54v-1.33l2.85-5.73Zm0,12.33v10.27l-2.85-1.81V372.84l2.85,1.6Zm0,14.34v1.73l-2.85,3.94v-7.6l2.85,1.93Zm0,8.74v1.79l-.87-.67.87-1.12Zm0,7.33v11.47l-2.85-2.47V402.59l2.85,2.26Zm0,19.46V434l-2.85-2.95v-3.86l2.85-2.88Zm0,17.81v4.14l-2.85,2.46v-9.8l2.85,3.2Zm0,10.21V458l-2.66-3.39,2.66-2.27Zm0,12.46v11.34l-2.85,2.26V461.26l2.85,3.53Zm-2.85-42.74v-3.67l1.92,1.74-1.92,1.93Zm0-236.92v-2.27l1.19,1.2Zm0-59.42v17.2l-3.13,3.94-1.92-1.6V131.71l4.51-6.4.54.4Zm0,29.74v9.8l-5.05,5.8v-15.2l2.25-2.94,2.8,2.54Zm0,16.67v5.53l-2.67-2.73,2.67-2.8Zm0,10.74-5.05-5.21v12.21l5.05-4.73v-2.27Zm0,7v11.47l-1.54,1.26-3.51-4.26v-3.94l5.05-4.53Zm0,21.07v6.54l-5.05,3.4v-11l2.78-2.14,2.27,3.2Zm0,10.6V231.8l-2.46,1.34-2.59-4.4V224.8l5.05-3.27Zm0,14V238l-.94-2,.94-.47Zm0,132.3v1.33l-.54-.26.54-1.07Zm0,5V382.9l-5.05-3.27v-2.79l3.05-5.13,2,1.13Zm0,14v7.6l-1.66,2.33-3.39-2.53V383.51l5.05,3.34Zm0,15.74v11.26l-5.05-4.53v-2.53l4.11-5,.94.75Zm0,15.79-5.05-4.66v12.47l.53.53,4.52-4.67v-3.67Zm0,8.81v3.86L382,429.12l1.87-1.93Zm0,11.73v9.8l-2.8,2.47-2.25-2.87v-15.2l5.05,5.8Zm0,22.34v17.13l-.54.48-4.51-6.46V458.86l1.92-1.53,3.13,3.93Zm-5.05-60.81v-2.34L380,399l-1.19,1.41Zm0-194.52v-1.2l.59.74Zm0-74.22v13.54l-3.53-2.81v-5.66l3.53-5.07Zm0,24.14v15.2l-1.07,1.14-2.46-2.14v-9.66l3.53-4.54Zm0,21.8v12.21l-3.53,3.33V180.86l3.26-3.47.27.26Zm0,16.74v3.94L377,196.12l1.86-1.73Zm0,10.34v1.2l-3.53,2.8v-8.26l3.53,4.26Zm0,5.14v11l-3.53,2.4V212.6l3.53-2.73Zm0,14.93v3.94l-1.66-2.8,1.66-1.14Zm0,152v2.79l-1.2-.79,1.2-2Zm0,6.67v10.74l-3.53-2.74v-9.67l.34-.47,3.19,2.14Zm0,14.6v2.34l-3.53,4.2v-9.34l3.53,2.8Zm0,8.68v2.53l-1.2-1.08,1.2-1.45Zm0,6.93v12.47l-3.53-3.67v-12l3.53,3.19Zm0,19.4v15.2l-3.53-4.52v-9.68l2.46-2.19,1.07,1.19Zm0,25.74v13.55l-3.53-5v-5.66l3.53-2.87Zm-3.53-3v-5.27l2.59,3.21-2.59,2.06Zm0-26.54v0Zm0-254.4v-.07h0v.07Zm0-21.34v-5.33l2.59,2.07Zm-4.44,255.27,1.59-1.53-1.59-1.48v3Zm4.44-272.07v5.66l-2.59-2.06,2.59-3.6Zm0,11.47v5.33l-4.44,5.54V144.71l4.44,3.54Zm0,12.14v9.66l-4.44-3.93,4.44-5.73Zm0,14.46v.07l-4.44,5v-9l4.44,3.93Zm0,6v12.33l-.85.8-3.59-3.73v-4.73l4.44-4.67Zm0,19.61v8.26l-4.44,3.53v-11.6l2.65-2.4,1.79,2.21Zm0,12.13v10.67l-.13.06-4.31-6.06v-1.2l4.44-3.47Zm0,169.24v9.67l-4.44-3.33v-.07l4.44-6.27Zm0,13.47v9.34l-1.18,1.46-3.26-2.93V391.84l4.44,3.47Zm0,15.22v12l-4.44-4.67v-3.21l4.24-4.32.2.21Zm0,18.72v.07l-4.44,3.93v-9.07l4.44,5.07Zm0,4.87v9.68l-4.44-5.75,4.44-3.93Zm0,16.47v5.27l-4.44,3.6V445l4.44,5.6Zm0,11.14v5.66l-2.59-3.65,2.59-2Zm-4.44-263.8v-1.87l.93,1ZM363.5,411.25l2.53,2.6,4.84-5v-3L363.5,399v12.21Zm7.37-266.54v14.41l-3.34,4.27-4-3.27v-7l6.44-9.14.93.73Zm0,26.21v9l-5,5.73-2.4-2.13v-8.27l5-6.47,2.4,2.13Zm0,14.61-2.27,2.4,2.27,2.33v-4.73Zm0,10.53v1.87l-7.37,6.86V192.26l1.86-1.87,5.51,5.67Zm0,4.6-7.37,6.67v1.27l4.78,5.73,2.59-2.07v-11.6Zm0,15.41v1.2l-.54-.81.54-.39Zm0,172v0Zm0,3.73v11.34l-7.37-6.6v-.07l5.32-6.33,2.05,1.66Zm0,22.8v3.21l-1.54-1.59,1.54-1.62Zm0,9.54v9.07l-2.4,2.14-5-6.47v-8.33l2.4-2.08,5,5.67Zm0,20.81v14.47l-.93.73-6.44-9.14V444l4-3.2,3.34,4.2Zm-7.37,18.93,2.25-1.52-2.25-3.27v4.79Zm0-24.53v-3.53l1.73,2.19-1.73,1.34Zm0-24.14v-.07h.06l-.06.07Zm0-226.26v-.06h.06l-.06.06Zm0-20.74v-3.53l1.73,1.4-1.73,2.13Zm0-23.27,2.25-3.2-2.25-1.6ZM363,410.79l.46.46V399l-.46-.4v12.15Zm.46-270.61V145l-.46.67v-5.81l.46.34Zm0,12.94v7l-.46-.33v-6.07l.46-.6Zm0,11.6v3.53l-.46.61v-4.47l.46.33Zm0,10.54v8.27l-.46-.41v-7.26l.46-.6Zm0,13.67V189l-.46.54v-1l.46.4Zm0,3.33v12.53l-.46.41V192.8l.46-.54Zm0,15.07v1.27l-.46-.54v-.33l.46-.4Zm0,189.18v.07h0v-.07Zm0,18.67v.07l-.46.4v-1l.46.54Zm0,5.41v8.33l-.46-.6V421l.46-.39Zm0,15.27v3.53l-.46.4v-4.46l.46.53Zm0,8.13v7.06l-.46-.65v-6l.46-.4Zm0,15.14v4.79l-.46.34v-5.8Zm-7.36-55.62,6.9,7.28V398.64l-1.06-1-5.84,5.86ZM363,139.84v5.81l-6.77,9.8-4.78-3.33v-6.34l5.9-9.8,5.65,3.86Zm0,13.88-2.67,3.87,2.67,2.2v-6.07Zm0,10.67v4.47l-6.77,8.53-4.78-3.87v-3.59l6.63-9.54,4.92,4Zm0,11.47-3.32,4.33,3.32,2.93v-7.26Zm0,12.67v1L354.2,199.6l-2.71-2.4v-7.47l5.24-6.81,6.31,5.61Zm0,4.27-7.51,8,5.85,6,1.66-1.6V192.8Zm0,14.93v.33l-.14-.19.14-.14Zm0,206.91v1l-6.31,5.59-5.24-6.79V407l2.71-2.46L363,414.64Zm0,6.34-3.32,3,3.32,4.34V421Zm0,14.35v4.46l-4.92,3.94-6.63-9.47v-3.6l4.78-3.87,6.77,8.54Zm0,9.06v6l-2.67-3.88,2.67-2.13Zm0,14.07-6.77-9.81-4.78,3.41v6.33l5.9,9.81,5.65-3.94v-5.8Zm-11.55-10.8,2.64-1.87-2.64-3.93v5.8Zm0-22.2,2.58-2.07-2.58-3.34v5.41Zm0-241.34,2.58-3.33-2.58-2.13v5.46Zm0-21.8,2.64-3.93-2.64-1.87v5.8Zm0-23.87,2.58-4.6-2.58-1.34v5.94Zm0-30.88v-7.46c2.91-8.21,2.58-15.87,0-22.34V70.5C358.06,80,359.45,93.37,351.49,107.57Zm0-37.07v7.27a34.62,34.62,0,0,0-1.8-3.54V68.16c.6.73,1.19,1.53,1.8,2.34Zm0,29.61v7.46c-.61.94-1.13,1.94-1.8,2.87v-6.2c.67-1.4,1.27-2.73,1.8-4.13Zm0,32.4v5.94l-1.8,3.06v-9.87l1.8.87Zm0,13.27v6.34l-1.8-1.2v-2.27l1.8-2.87Zm0,10.74v5.8l-1.8,2.54v-9.61l1.8,1.27Zm0,13.41v3.59l-1.66-1.33,1.66-2.26Zm0,8.73v5.46l-1.8,2.21v-9.07l1.8,1.4Zm0,11.07v7.47l-1.8-1.61V192l1.8-2.27Zm0,217.25v7.47l-1.8-2.26v-3.68l1.8-1.53Zm0,13.07v5.41l-1.8,1.4v-9l1.8,2.2Zm0,10.61v3.6l-1.66-2.33,1.66-1.27Zm0,11.2v5.8l-1.8,1.2v-9.53l1.8,2.53Zm0,10.2v6.33l-1.8-2.87v-2.25l1.8-1.21Zm-1.8,20.28V462.26l1,1.61-.81,8.54Zm0-404.18v6.07a28.57,28.57,0,0,0-8.11-8.87V61.23a32.75,32.75,0,0,1,8.11,6.93Zm0,36.08v6.2a63.52,63.52,0,0,1-8.11,10v-4.21a56,56,0,0,0,8.11-12Zm0,27.4v9.87l-4,7.08-4.14-2.34v-10.6l3.06-6.61,5.05,2.6Zm0,17v2.27l-.93-.67.93-1.6Zm0,6.6v9.61l-3.73,5.4-4.38-3.07v-5.6l5.12-8.41,3,2.07Zm0,22v9.07l-4.45,5.6L341.58,189v-6.2l5.39-7.73,2.72,2.2Zm0,14.74v3.59L348,194.12l1.65-2.12Zm0,216.51v3.68L348,410.05l1.65-1.54Zm0,9.34v9L347,429.05l-5.39-7.67v-6.2l3.66-2.94,4.45,5.61Zm0,21.48v9.53l-3,2.13-5.12-8.4V437l4.38-3.06,3.73,5.4Zm0,13.94v2.25l-.93-1.59.93-.66Zm0,9v10.08l-7.83-3.48-.28-.53V457.85l4.14-2.25,4,6.66Zm-8.11-8.53,2.2-1.27-2.2-3.81v5.08Zm0-21.67,2.4-1.67-2.4-3.47v5.14Zm0-254.8,2.4-3.47-2.4-1.67v5.14Zm0-21.74,2.2-3.87-2.2-1.27v5.14Zm0-54.08v-7.6a5.71,5.71,0,0,1,1.07-.14,3.94,3.94,0,0,1,4,3.94,4,4,0,0,1-4,4,3.16,3.16,0,0,1-1.07-.2Zm0-13.81v-6a4.23,4.23,0,0,1,2.93-1.2,4.17,4.17,0,1,1-2.93,7.2Zm0-13.46a3.18,3.18,0,0,0,.34-1.61,3.28,3.28,0,0,0-.34-1.67Zm0-12.94v4.13a36.32,36.32,0,0,0-3.83-2.4V59.22a35.56,35.56,0,0,1,3.83,2Zm0,9.66v3.28a4,4,0,0,1-3.77,2.53h-.06V68.37h.06a4,4,0,0,1,3.77,2.52Zm0,10.74v6a4.3,4.3,0,0,1-1.26-3,4.1,4.1,0,0,1,1.26-3Zm0,12.21v7.6a4,4,0,0,1,0-7.6Zm0,22.4v4.21a52.27,52.27,0,0,1-3.83,3.73v-3.87c1.39-1.34,2.65-2.73,3.83-4.07Zm0,19.41v10.6l-3.83-2.2V144l3.83-8.33Zm0,14.73v5.14l-3.83,6.73V148.18l3.83,2.2Zm0,11.21-2.38,3.94,2.38,1.66v-5.6Zm0,10.53v5.14l-3.83,5.6V169.45l3.83,2.67Zm0,10.67-2.77,3.94,2.77,2.26v-6.2Zm0,232.39v6.2l-2.77-4,2.77-2.2Zm0,11.74-3.83-5.61v13.41l3.83-2.66v-5.14Zm0,10.07v5.6l-2.38-3.93,2.38-1.67Zm0,11.66-3.83-6.73v14l3.83-2.2v-5.08Zm0,9.2v10.48l-3.83-8.14v-.06l3.83-2.28Zm-3.83,12.95v0Zm0-337.69v-4.53l2.71-1.41-2.71,5.94Zm0-19.61V106a4.08,4.08,0,0,1,0,7.53Zm0-25.87V84.91A20.55,20.55,0,0,1,337.75,87.63Zm0-28.41V63A37.86,37.86,0,0,0,333.3,61V57.56a36.13,36.13,0,0,1,4.45,1.66Zm0,9.15V76.7a4.17,4.17,0,0,1,0-8.33Zm0,16.54v2.72c-.34,3.47-1.79,7.67-4.45,12.54V92.64c1.59-4.54,1.45-7.87,0-10.14V77.56a9.58,9.58,0,0,1,4.45,7.35Zm0,21.06v7.53a4,4,0,0,1-1.54.27,3.9,3.9,0,0,1-2.91-1.26V107a3.94,3.94,0,0,1,2.91-1.34,4.05,4.05,0,0,1,1.54.33Zm0,14.34v3.87c-1.41,1.26-2.92,2.53-4.45,3.8v-3.6c1.59-1.33,3-2.68,4.45-4.07Zm0,8.27v4.53l-4.26,9.33-.19-.06V130.91l4.45-2.33Zm0,15.4v.07h-.08l.08-.07Zm0,4.2v14.07l-1.15,1.94-3.3-1.94v-9.73l2.58-5.33,1.87,1Zm0,21.27v13.41l-1.79,2.6-2.66-1.86V174l3.25-5.41,1.2.86Zm0,251.86v13.41l-1.2.87-3.25-5.4v-9.66l2.66-1.81,1.79,2.59Zm0,20.61v14L335.88,457l-2.58-5.34v-9.8l3.3-1.87,1.15,1.93Zm0,18.21v.06l-.08-.06Zm0,10.47v.2l-1.41,8-3-1.61v-15.4l.19-.13,4.26,8.94Zm-4.45-33.35,1.65-1-1.65-3v4Zm0-266.4,1.65-2.93-1.65-1Zm0-113.29V61c-.41-.14-.81-.27-1.27-.4V57.29c.46.07.86.2,1.27.27Zm0,20V82.5A8.87,8.87,0,0,0,332,81.16V76.9a14.23,14.23,0,0,0,1.27.66Zm0,15.08v7.53c-.41.67-.81,1.34-1.27,2.07V95.57a23.21,23.21,0,0,0,1.27-2.93Zm0,14.34v5.53a3.91,3.91,0,0,1-1.14-2.8A3.74,3.74,0,0,1,333.3,107Zm0,17.4V128a10.69,10.69,0,0,1-1.27.94v-3.54c.46-.34.86-.67,1.27-1Zm0,6.53v11.47l-1.27-.6v-10.2l1.27-.67Zm0,21.61v9.73l-1.27-.66v-6.67l1.27-2.4Zm0,14.4v3.93L332,173v-6.73l1.27.66Zm0,7.08v9.6l-1.27-.81v-6.87L333.3,174Zm0,246.53v9.66l-1.27-2v-6.8l1.27-.85Zm0,12.72v4l-1.27.67v-6.73l1.27,2.06Zm0,8.61v9.8l-1.27-2.4v-6.67l1.27-.73Zm0,19.93v15.4L332,476.6V462.33ZM332,57.29v3.34c-.4-.14-.86-.27-1.33-.4V57a8.34,8.34,0,0,1,1.33.33Zm0,19.61v4.26a9.85,9.85,0,0,0-1.33-.93V76.36a8.39,8.39,0,0,1,1.33.54Zm0,18.67v6.67c-.4.73-.86,1.46-1.33,2.2V98.3c.47-.93.93-1.86,1.33-2.73Zm0,29.81v3.54A11.67,11.67,0,0,1,330.7,130v-3.47a10.31,10.31,0,0,0,1.33-1.13Zm0,6.2v10.2l-1.33-.6v-8.87l1.33-.73Zm0,23.34v6.67l-1.33-.8v-3.07l1.33-2.8Zm0,11.34V173l-1.33,2.4v-9.94l1.33.81Zm0,9.66v6.87l-1.33-1v-3.53l1.33-2.34Zm0,245.46v6.8l-1.33-2.26v-3.6l1.33-.94Zm0,9.81v6.73l-1.33.81v-10l1.33,2.47Zm0,11.4v6.67l-1.33-2.8V443.4l1.33-.81Zm0,19.74V476.6l-1.33-.67V463l1.33-.67ZM330.7,459v-3.07l1.13,2.53-1.13.54Zm0-310.75v-3.07l1.13.54Zm0-91.29v3.27a39.77,39.77,0,0,0-8.09-1.2V56.16a33,33,0,0,1,8.09.8Zm0,19.4v3.87a17,17,0,0,0-8.09-1.46V75a26.14,26.14,0,0,1,8.09,1.33Zm0,21.94v6.14a129.76,129.76,0,0,1-8.09,10.8v-4.87A91.88,91.88,0,0,0,330.7,98.3Zm0,28.21V130c-1.93,1.46-4,2.87-6.18,4.33l-1.91,4.27v-8.74c.78.34,1.51.61,2.31.93,2.06-1.39,4-2.79,5.78-4.26Zm0,5.8-4.12,2.13-1.45,4.2,5.57,2.54v-8.87Zm0,12.87v3.07l-4.92,10.54-3.17-1.47v-12.8l1-2.61,7.11,3.27Zm0,12.54-1.19,2.4,1.19.67v-3.07Zm0,7.73v9.94l-2.79,4.87-5.3-3v-4.8l4.44-9.07,3.65,2.06Zm0,12.81-1.53,2.53,1.53,1v-3.53Zm0,244.06v3.6l-1.53-2.53,1.53-1.07Zm0,6.4-2.79-4.8-5.3,3v4.8l4.44,9,3.65-2v-10Zm0,14.68v3.06l-1.19-2.4,1.19-.66Zm0,12.53-4.92-10.61-3.17,1.47v12.88l1,2.53,7.11-3.2v-3.07Zm0,7.07v12.93l-2.13-1.06-3.44-9.41L330.7,463Zm-8.09,18.47V472l1.59,4.13-1.59,5.34Zm0-39.15v-4.8l1.85,4-1.85.8Zm0-275.73,1.85-3.93-1.85-.87v4.8Zm0-44.14v-2.08a3.22,3.22,0,0,1,3.05-2.2,3.24,3.24,0,0,1,0,6.47,3.21,3.21,0,0,1-3.05-2.19Zm0-53.09v-4a4.09,4.09,0,0,1,3.64-2.2,4.21,4.21,0,0,1,4.18,4.2,4.26,4.26,0,0,1-4.18,4.2A4.21,4.21,0,0,1,322.61,69.36Zm0-13.2V59c-1.27,0-2.53,0-3.87.07V56.43a25.8,25.8,0,0,1,3.87-.27Zm0,9.2v4a4,4,0,0,1,0-4Zm0,9.67c-.74,0-1.54,0-2.33.07a41.6,41.6,0,0,0-1.54-9.34V89.43a53,53,0,0,0,1.54-10.53c.79-.07,1.59-.13,2.33-.13V75Zm0,35.34v4.87c-1.21,1.47-2.47,2.93-3.87,4.47v-4.6c1.4-1.67,2.66-3.27,3.87-4.74Zm0,10v2.08a2.63,2.63,0,0,1-.2-1,2.68,2.68,0,0,1,.2-1.07Zm0,9.47v8.74l-3.87,8.4v-11.2a6.18,6.18,0,0,1,1.48.73,17.62,17.62,0,0,1,1.46-2.94c-.93-.4-1.93-.79-2.94-1.19v-3.93c1.27.47,2.6.93,3.87,1.39Zm0,14.68-3.87,9.73v1.34l3.87,1.73v-12.8Zm0,17.27v4.8l-3.87,8.26v-14.8l3.87,1.74Zm0,10.67-1.86,3.73,1.86,1.07v-4.8Zm0,254.46v4.8L320.75,428l1.86-1.06Zm0,10.6-3.87-8.2v14.74l3.87-1.74v-4.8Zm0,9.27v12.88l-3.87-9.74v-1.4l3.87-1.74Zm0,25.21v9.47l-.81,2.6-3.06-1.94V467.32l1.8-.59,2.07,5.27Zm-3.87-8.46v-1.41l.48,1.27Zm0-407.11V59.1l-2.05.19a64.16,64.16,0,0,1,2.05,6.47V89.43a76.21,76.21,0,0,1-4.1,12.61V92.3c2.66-9.53,2.93-19,0-28.34v-8.4a15.63,15.63,0,0,1,.73,1.4,28.39,28.39,0,0,1,3.37-.53Zm0,58.68v4.6c-1.25,1.47-2.64,2.93-4.1,4.47v-4.34c1.46-1.6,2.85-3.2,4.1-4.73Zm0,13.34v3.93a40.56,40.56,0,0,0-4.1-1.61V127c1.39.46,2.79.93,4.1,1.47Zm0,7.33V147l-3.64,8a1.48,1.48,0,0,1-.46-.13V135.38a10.28,10.28,0,0,1,1.46-.13,6.91,6.91,0,0,1,2.64.53Zm0,18.47-.45,1.13.45.21v-1.34Zm0,5.8v14.8l-.32.74-3.78-1.73V162.78l1.51-3.92,2.59,1.19Zm0,269.27v14.74l-2.59,1.2-1.51-3.87V430.32l3.78-1.73.32.73Zm0,19.21v1.4l-.45-1.21.45-.19Zm0,13.6v1.41l-4.1,1.45v-14.2l4.1,11.34Zm0,5.19v14.81l-4.1-2.66h0V468.81Zm-4.1-411.76V64a39.71,39.71,0,0,0-1.73-4.67c-.26-.53-.53-1-.8-1.46V51.69c.86,1.2,1.72,2.47,2.53,3.87Zm0,36.74V102c-.81,1.87-1.6,3.73-2.53,5.6V99.77a68.52,68.52,0,0,0,2.53-7.47Zm0,27.54v4.34c-.66.73-1.33,1.4-2,2.14.66.19,1.33.46,2,.66v3.79c-.87-.32-1.67-.65-2.53-.93v-7.13c.86-1,1.72-1.93,2.53-2.87Zm0,15.54v19.47l-2.53-.8v-2.87c.27.07.54.2.86.27a15.9,15.9,0,0,0,1-1.94,6.46,6.46,0,0,1-1.87-.86v-12.2a6.66,6.66,0,0,1,2.53-1.07Zm0,27.4v11.08l-2.53-1.14v-3.46l2.53-6.48Zm0,267.54v11.07l-2.53-6.47v-3.47l2.53-1.13Zm0,20.47V465l-2.53.88V450.53l2.2-.73.33,1Zm0,18v10.66l-2.53-9.07v-.67l2.53-.92Zm-2.53-22.55v-3.6l1.13,3.2-1.13.4Zm0-284.81v-3.54l1.13.41-1.13,3.13Zm0-88.15v0Zm0-21.61v6.14a33.25,33.25,0,0,0-4.51-6.07V46.83a28.4,28.4,0,0,1,4.51,4.86Zm0,21.07v.54a4.16,4.16,0,0,1-4.19,3.93h-.32v-8.4h.32a4.16,4.16,0,0,1,4.19,3.93Zm0,27v7.87c-1.39,2.8-2.85,5.67-4.51,8.47v-6.87a85.62,85.62,0,0,0,4.51-9.47Zm0,22.94v7.13c-1.46-.53-3-1.06-4.51-1.53v-3.6l2.13.6c.78-.93,1.59-1.8,2.38-2.6Zm0,13.74v12.2a7.28,7.28,0,0,1,0-12.2Zm0,14.73v2.87l-4.51-1.4v-3.07c1.52.54,3,1,4.51,1.6Zm0,6.73v3.54l-3.72,10.28-.79-.27V156.32l4.51,1.59Zm0,11.35L311,172.19l1.13.53v-3.46Zm0,262.19v3.47L311,432l1.13-.54Zm0,11.21-3.72-10.27-.79.26v15.14l4.51-1.53v-3.6Zm0,7.87v15.34l-1.46.54-3-10.28v-4l4.51-1.6Zm0,19.2v.67l-.21-.6.21-.07Zm-4.51,18.4V476.47l2.79,10.92-2.79.74Zm0-396.3v-8.4a4.2,4.2,0,0,1,0,8.4Zm0-30.2V59.49a4.47,4.47,0,0,1,0,2.14Zm0-14.8v4.93a18.1,18.1,0,0,0-2.4-2.33V45a26.48,26.48,0,0,1,2.4,1.87Zm0,12.66v2.14a4,4,0,0,1-2.4,2.8V56.69a4.18,4.18,0,0,1,2.4,2.8Zm0,9.34v8.4a4.27,4.27,0,0,1-2.4-1.07V69.9a4.34,4.34,0,0,1,2.4-1.07Zm0,14.6v8.4a4.29,4.29,0,0,1-2.4-.8V84.24a4.29,4.29,0,0,1,2.4-.81Zm0,25.81v6.87c-.8,1.33-1.59,2.74-2.4,4.06v-6.6c.81-1.46,1.67-2.86,2.4-4.33Zm0,15.47v3.6c-.8-.2-1.59-.46-2.4-.73V124l2.4.67Zm0,24.87v3.07c-.8-.2-1.59-.47-2.4-.67v-3.2l2.4.8Zm0,6.74v15.14l-2.4-.87V155.52l2.4.8Zm0,276.33v15.14l-2.4.86V433.52l2.4-.87Zm0,19.48v4l-1.05-3.67,1.05-.33Zm0,24.34v11.66l-2.4.6v-17.2l1.07-.27,1.33,5.21Zm-2.4-8.68v-.47l.08.47Zm0-329.61v-3.94a8.73,8.73,0,0,1,.27,1.94,9.72,9.72,0,0,1-.27,2Zm0-31.2v-6.87a3.95,3.95,0,0,1,0,6.87Zm0-62v4.47a24.11,24.11,0,0,0-4.31-2.87v-4A30.06,30.06,0,0,1,305.2,45Zm0,11.73v7.74a4.45,4.45,0,0,1-1.59.34,4.27,4.27,0,0,1-2.72-1v-6.4a4.26,4.26,0,0,1,2.72-1,4.43,4.43,0,0,1,1.59.33Zm0,13.21v6.26a4.24,4.24,0,0,1,0-6.26Zm0,14.34V91a4.23,4.23,0,0,1-1.72-3.4,4.13,4.13,0,0,1,1.72-3.39Zm0,15.87V107a3.66,3.66,0,0,1-1.85.46,4.05,4.05,0,0,1-2.46-.86v-6a3.67,3.67,0,0,1,2.46-.93,4.41,4.41,0,0,1,1.85.47Zm0,13.46v6.6c-.65,1.15-1.38,2.21-2.05,3.27.14.07,1,.27,2.05.6v3.54l-4.31-1.2v-6.07c1.54-2.27,2.93-4.53,4.31-6.74Zm0,20.67v3.94a7.69,7.69,0,0,1-4.31,4.8V129.45a7.35,7.35,0,0,1,4.31,4.79Zm0,14.54V152c-1.45-.4-2.91-.8-4.31-1.2v-3.27c1.4.41,2.86.88,4.31,1.27Zm0,6.74v15.07l-4.31-1.47v-.93l3.79-12.87.52.2Zm0,278v15.13l-.52.21L300.89,436v-.93l4.31-1.54Zm0,33.8v.47l-4.31,1.14V454.06l.88-.2,3.43,13.46Zm0,4.21v17.2l-4.31,1.14v-17.2l4.31-1.14Zm-4.31-21.6v-1.07l.27,1-.27.07Zm0-294.14.4-1.47-.4-.14v1.61Zm0-72.89V78C301,79.63,301,81.23,300.89,82.9Zm0-40.35v4a18.49,18.49,0,0,0-3.77-1.6V41.22a23.64,23.64,0,0,1,3.77,1.33Zm0,14.81v6.4a4.22,4.22,0,0,1,0-6.4Zm0,20.67V82.9a68.52,68.52,0,0,1-3.77,19V89c1.32-6.66,1.58-13.2,0-18.33V64.36c2.3,3.54,3.52,8.34,3.77,13.67Zm0,22.54a3.82,3.82,0,0,0-1.39,3,4,4,0,0,0,1.39,3v-6Zm0,19.74v6.07c-1.26-.33-2.52-.67-3.77-.94v-3.53c.79.2,1.52.4,2.25.54.53-.75,1-1.41,1.52-2.14Zm0,9.14V143a7.66,7.66,0,0,1-2.73.53c-.32,0-.65-.06-1-.06V129a6.47,6.47,0,0,1,1-.06,6.25,6.25,0,0,1,2.73.53Zm0,18.06v3.27c-1.26-.26-2.52-.6-3.77-.86v-3.47c1.25.33,2.51.67,3.77,1.06Zm0,6.67v1.61l-3.25,12.26-.52-.13V153.25l3.77.93Zm0,14v.93l-.25-.13.25-.8Zm0,266.87V436l-.25-.87.25-.06Zm0,13.8v1.07l-3.77.93V436.19l.52-.06,3.25,12.73Zm0,5.2v14.87l-3.77,1V455.06l3.77-1Zm0,18.61v17.2l-.33.07-3.18-16.33,3.51-.94Zm-3.77,41.21v-14.4l2.51,14-2.51.41Zm0-395v-6.47h0a3.24,3.24,0,0,1,3.23,3.26,3.2,3.2,0,0,1-3.23,3.21Zm0-77.63V45a31.75,31.75,0,0,0-4.45-1.07v-3.6a31.6,31.6,0,0,1,4.45.93Zm0,23.14v6.27a13.83,13.83,0,0,0-4.45-7.07V59.89a13.77,13.77,0,0,1,4.45,4.47Zm0,24.6v13A57,57,0,0,1,292.67,112v-7.86A86.81,86.81,0,0,0,297.12,89Zm0,23.42v6.47a3.2,3.2,0,0,1-3.19-3.21,3.24,3.24,0,0,1,3.19-3.26Zm0,9.53v3.53l-4.45-1V121c1.46.27,3,.59,4.45.93Zm0,7.07v14.47a7,7,0,0,1-4.45-2.54v-9.47a7,7,0,0,1,4.45-2.46Zm0,17.47v3.47c-1.47-.41-3-.67-4.45-1v-3.6c1.46.4,3,.73,4.45,1.13Zm0,6.8v14.67l-4.45-1.2V152.05l4.45,1.2Zm0,282.94v14.67l-4.45,1.2V437.38l4.45-1.19Zm0,18.87v14.87l-.67.21-2.65-14.21,3.32-.87Zm0,44.42v14.4l-4.45.8V495.94l3.71-.67.74,4.21Zm-4.45-8.14V474.47l2.84,16.33-2.84.54Zm0-435.24V47.76h0a4.17,4.17,0,0,1,0,8.34Zm0-15.81v3.6a39.19,39.19,0,0,0-8.9-.13V40.29a38.93,38.93,0,0,1,8.9,0Zm0,7.47V56.1a4.17,4.17,0,1,1,0-8.34Zm0,12.13v3.67a13.3,13.3,0,0,0-7.77-2.73l-1.13.13V58c.33,0,.72-.06,1.13-.06a14.93,14.93,0,0,1,7.77,2Zm0,44.29V112a38.09,38.09,0,0,1-5.85,7.94c1.93.26,3.85.6,5.85,1v3.46c-3-.59-5.92-1.13-8.9-1.53v-3.73a20.46,20.46,0,0,1,1.32-1.6c2.46-2.74,5.18-7.68,7.58-13.4Zm0,27.26v9.47a7.16,7.16,0,0,1,0-9.47Zm0,13.88v3.6c-3-.6-6-1.14-8.9-1.6v-3.73c2.92.46,5.9,1.06,8.9,1.73Zm0,6.73v14.67l-3-.73,2.79-14,.21.07Zm0,285.33v14.68l-.35.07-2.65-13.94,3-.81Zm0,37.09v16.87l-7.18,1.27-1.72-14.94v-1.74l8.82-1.53.08.07Zm0,21.47v18.74l-4.27.8-2.11-18.41,6.38-1.13Zm-8.9,39.14v-7l.66,6.94-.66.07Zm0-62.81V457.65l5.57-1,2.52,14.19-8.09,1.41Zm0-18.74V439.06l2.79-.47,2.51,14-5.3.93Zm0-288.47V150.65l5.3.93-2.51,14-2.79-.53Zm0-26.42v-13a7.31,7.31,0,0,1,0,13Zm0-98.35v3.47c-1.41.13-2.85.33-4.33.59V40.89c1.48-.27,2.92-.47,4.33-.6Zm0,17.67v3l-2.12.2a10.79,10.79,0,0,0-2.21.67V58.69a17.58,17.58,0,0,1,4.33-.73Zm0,61.22v3.73c-1.46-.2-2.85-.4-4.33-.53v-3.27l4,.4c.14-.06.21-.2.34-.33Zm0,6.46v13a6.81,6.81,0,0,1-3.33.81,4.86,4.86,0,0,1-1-.07V124.91c.34,0,.67-.06,1-.06a8,8,0,0,1,3.33.79Zm0,18v3.73l-4.33-.6v-3.81c1.4.2,2.87.4,4.33.68Zm0,7.06v14.41l-4.33-.74v-8.53l.67-5.81,3.66.67Zm0,288.41v14.47l-3.66.66-.67-5.8v-8.54l4.33-.79Zm0,18.59v14.62l-.87.2-1.66-14.41,2.53-.41Zm0,18.28v1.74l-.2-1.67.2-.07Zm0,52.14v7l-4.33.47V520.34L283,520l.8,8.06Zm-4.33-11.92V497.54l1.34-.13,1.72,18.41-3.06.33Zm0-23.14v-9l.8,8.87-.8.14Zm0-437.45v-8.4a4.15,4.15,0,0,1,4.13,4.2A4.2,4.2,0,0,1,279.44,55.56Zm0-14.67v3.46c-1.59.27-3.17.61-4.83,1l-1.74-1.47V39.56l2.54,2.13c1.39-.33,2.71-.6,4-.8Zm0,6.27v8.4a4.2,4.2,0,0,1-4.16-4.2,4.15,4.15,0,0,1,4.16-4.2Zm0,11.53v3.14a14.05,14.05,0,0,0-6.57,5V62.36a15.28,15.28,0,0,1,6.57-3.67Zm0,60.42v3.27c-2.18-.27-4.38-.47-6.57-.61V109.24c1,3.6,2.06,6.81,2.94,9.21l.13.33c1.18.13,2.32.19,3.5.33Zm0,5.8v14.47a7.31,7.31,0,0,1-6.29-7.2,7.43,7.43,0,0,1,6.29-7.27Zm0,18v3.81c-2.18-.27-4.38-.47-6.57-.67v-3.81c2.19.14,4.39.41,6.57.67Zm0,12.88v8.53l-1-.2,1-8.33Zm0,284.06v8.54l-1-8.33,1-.21Zm0,44.15v9l-6.57.6V476.8l5.86-.53.71,7.73Zm0,13.54v18.61l-6.57.59V498.2l6.57-.66Zm0,22.8v15.21l-6.57.6V520.94l6.57-.6Zm-6.57-47.14V458.66l4.06-.33,1.33,14.34-5.39.53Zm0-18.6V440.32l2.73-.26,1.33,14.2-4.06.34Zm0-291.08V149.19l4.58.46-1,14.21-3.54-.34Zm0-139.83V13.29l2.19,2.46Zm0-10.4v10.4l-3.64,12.86,3.64,3v4.33L265,37.09,270.82,16l-9.23-9.33V.68l11.28,12.61Zm0,49.07v4.47c-7.22,9.8-3.78,29.14,0,42.41v12.53c-1.19-.13-2.32-.2-3.51-.26v.06q-3.89-.19-7.77-.2v-3.06c3.79,0,7.5.06,11.23.27-9.17-25.08-9.63-47.08.05-56.22Zm0,79.88v3.81c-3.78-.27-7.49-.46-11.28-.46v-3.81c3.79,0,7.5.13,11.28.46Zm0,6.95v14.33l-4.63-.47.19-14.27,4.44.41Zm0,291.13V454.6l-5,.53-.46-14.27,5.43-.54Zm0,18.34V473.2l-3.64.34-.47-14.47,4.11-.41Zm0,18.14v16.81l-2.72.26-.6-16.73,3.32-.34Zm0,21.4v18.54l-1.65.21-.6-18.54,2.25-.21Zm0,22.74v15.21l-.86.07-.33-15.15,1.19-.13Zm-11.28,36.88V540.94l4.06.08.46,16.87-4.52-.07Zm0-21.67V521l3.85.06.4,15.15-4.25-.07Zm0-19.35V498.27l3.92.07.2,18.53-4.12-.07Zm0-23.06V477h3.92l.2,16.8-4.12-.06Zm0-20.4V458.86l3.92.07.2,14.47-4.12-.06Zm0-18.48V440.53l4.31.06.28,14.34-4.59-.07Zm0-291.27V149.32l4.59-.07-.28,14.27-4.31.07Zm0-25.41v-14.6a7.34,7.34,0,0,1,6.84,7.33,7.25,7.25,0,0,1-6.84,7.27Zm0-24.87a4.32,4.32,0,0,0,4.06-4.34,4.4,4.4,0,0,0-4.06-4.33v8.67Zm0-15.47a3.32,3.32,0,0,0,3-3.33,3.28,3.28,0,0,0-3-3.34v6.67Zm0-13.34a2.87,2.87,0,0,0,2.46-2.8,2.76,2.76,0,0,0-2.46-2.8v5.6Zm0-15.14a4.25,4.25,0,0,0,3.85-4.2A4.14,4.14,0,0,0,261.59,61v8.33Zm0-12.53a7.51,7.51,0,0,0,0-15Zm0-56.15V6.62L261.06,6,251.83,16l5.84,21.14L251,42.76V38.49l2.39-1.94L251,28.15V11.82l10-11.54V.08l.53.6Zm0,41.14h-.34a7.51,7.51,0,0,0,0,15h.34v-15Zm0,19.21v8.33h-.34a4.2,4.2,0,0,1,0-8.4c.15,0,.28,0,.34.07Zm0,17.87v5.6h-.34a2.79,2.79,0,0,1-2.71-2.8,2.75,2.75,0,0,1,2.71-2.8Zm0,12.27v6.67h-.34A3.36,3.36,0,0,1,258,94.51a3.32,3.32,0,0,1,3.24-3.34Zm0,13.47v8.67a2.14,2.14,0,0,1-.34.07A4.36,4.36,0,0,1,257,109a4.3,4.3,0,0,1,4.23-4.33Zm0,13.67v3.06h-.34c-3.37,0-6.75.07-10.21.27v-3.13c3.51-.14,7.1-.2,10.55-.2Zm0,5.27v14.6h-.39a7.3,7.3,0,0,1,0-14.6Zm0,18.2v3.81q-5.18,0-10.55.4v-3.67c3.58-.34,7.1-.47,10.55-.54Zm0,7.54v14.27l-3.79.06-.65-14.27,4.44-.06Zm0,291.21v14.33l-4.44-.06.65-14.27Zm0,18.33v14.48l-4.92-.07.67-14.41Zm0,18.14v16.74l-5.9-.07.72-16.8,5.18.13Zm0,21.27V516.8l-7.09-.06.86-18.54,6.23.07Zm0,22.74v15.14l-8.16-.06.79-15.21,7.37.13Zm0,19.93v16.88l-9.49-.14.94-16.87,8.55.13Zm-10.55-41v-1.53h.13l-.13,1.53Zm0-6.14V476.94l1.73.2-1.07,16.73-.66-.07Zm0-20.46V458.79l3.11.28-.93,14.47-2.18-.2Zm0-18.61V440.39l5,.47-.86,14.27-4.11-.4Zm0-290.94V149.45l4.11-.4.86,14.27-5,.47Zm0-48.62c7.56-22.53,8-42.14,0-51.48v5.14c4.84,9,2.92,23.74,0,35.61Zm0-103.35V28.15l-3.45-12.4L251,11.82Zm0,26.67v4.27l-3,2.6a62.44,62.44,0,0,0-8.5-1.54V40.36a71.22,71.22,0,0,1,7.7,1.33l3.78-3.2Zm0,25.2v5.14a14.48,14.48,0,0,0-10-7.67L239.56,61V58A16.37,16.37,0,0,1,251,63.69Zm0,40.75v10.73c-.34,1.14-.73,2.27-1.19,3.41a6.85,6.85,0,0,0,1.19-.07v3.13c-3.85.27-7.71.61-11.48,1.14v-3.27c2.38-.33,4.76-.54,7.16-.73l.14-.33c1.2-3.41,2.78-8.35,4.18-14Zm0,37.88V146c-3.85.26-7.63.66-11.48,1.27v-3.48c3.85-.67,7.7-1.13,11.48-1.46Zm0,7.13v14.34l-3.19.33-1.73-14.2,4.92-.47Zm0,290.94v14.34l-4.92-.47,1.73-14.2,3.19.33Zm0,18.4v14.55l-6.83-.67L246,458.33l5,.46Zm0,18.15V493.8l-9.36-.93,2-16.6,7.37.67Zm0,21.47v1.53L250,517l-10.42-1v-6.6L241,497.41l10,1Zm-11.48,36.94V520.14l9.81.93-.8,15.15-9-.87Zm0-62.94V457.65l2.17.41-2,14.41-.19-.06Zm0-18.81V439.06l5.43,1-2,14.13-3.45-.59Zm0-288.48V150.58L243,150l2,14.14-5.43,1Zm0-26.14v-13.6a6.74,6.74,0,0,1,2.65-.53,7.3,7.3,0,0,1,0,14.6,6.72,6.72,0,0,1-2.65-.47Zm0-85.69V49.43a4.08,4.08,0,0,1,3.63-2.27,4.17,4.17,0,0,1,4.2,4.2,4.22,4.22,0,0,1-4.2,4.2A4.1,4.1,0,0,1,239.56,53.29Zm0-12.93v3.46a34.41,34.41,0,0,0-13,.8V40.89a39.1,39.1,0,0,1,13-.53Zm0,9.07v3.86a3.89,3.89,0,0,1-.48-1.93,3.72,3.72,0,0,1,.48-1.93Zm0,8.59v3l-1.8-.2c-5.58.33-9.1,2.93-11.16,6.94V62.83a13.91,13.91,0,0,1,11.16-4.93c.6.06,1.19.06,1.8.12Zm0,61.49v3.27c-4.39.6-8.63,1.4-13,2.33V121.7c3.13-.72,6.18-1.25,9.24-1.72-3.59-3.6-6.78-9-9.24-15.08v-11c2.66,9.93,7.11,19.4,11,23.67.34.33,1.06,1.27,1.66,1.93Zm0,5.87V139a7.3,7.3,0,0,1,0-13.6Zm0,18.4v3.48c-4.32.66-8.63,1.52-13,2.53v-3.28c4.38-1.12,8.7-2,13-2.73Zm0,6.8v14.54l-2.67.47-2.78-14,5.45-1Zm0,288.48V453.6l-5.45-1,2.78-14,2.67.47Zm0,18.59v14.76l-8.77-1.55,2.86-14.19,5.91,1Zm0,51.69v6.6l-.8-.12.8-6.48Zm0,10.8v15.21l-3.39-.34,2-15,1.41.13Zm-13-5.86V495.47l9.16,1.6-2.59,18.41-6.57-1.2Zm0-46.69V455.26l2.6.67-2.6,11.66Zm0-16.54V436.33l7.18,1.86-3.07,13.94-4.11-1.08Zm0-283.2v-14.8l4.11-1.07,3.07,14-7.18,1.86Zm0-24.67v-14a7.32,7.32,0,0,1,0,14Zm0-24.53a3.18,3.18,0,0,0,2.13-3,3.25,3.25,0,0,0-2.13-3.07v6.08Zm0-64.29V49.49a4.21,4.21,0,0,1,3.4-1.73,4.17,4.17,0,1,1,0,8.34,4.22,4.22,0,0,1-3.4-1.74ZM239,476l-2.39,16.61-10-1.81L230,474.4ZM226.6,40.89v3.73a21.83,21.83,0,0,0-4.17,1.61V42.29a27.21,27.21,0,0,1,4.17-1.4Zm0,8.6v4.87a4.53,4.53,0,0,1-.73-2.47,4.28,4.28,0,0,1,.73-2.4Zm0,13.34v4.94c-3.24,6.46-2.45,16.53,0,26.14v11a72.8,72.8,0,0,1-4.17-15.6V72.63a22,22,0,0,1,4.17-9.8Zm0,49.74v6.08a3.17,3.17,0,0,1-4.17-2.14v-1.74a3.19,3.19,0,0,1,3-2.39,6.19,6.19,0,0,1,1.13.19Zm0,9.13v3.41c-1.4.33-2.79.67-4.17,1.07v-4.93c.26.39.52.79.85,1.2,1.13-.27,2.19-.54,3.32-.75Zm0,7.48v14a7.5,7.5,0,0,1-2.11.33,6.89,6.89,0,0,1-2.06-.33v-14a6.89,6.89,0,0,1,2.06-.26,7.45,7.45,0,0,1,2.11.26Zm0,17.33v3.28c-1.4.39-2.79.73-4.17,1.13v-3.33c1.38-.33,2.77-.74,4.17-1.08Zm0,6.54v14.8l-.73.2-3.44-12.2v-1.67l4.17-1.13Zm0,283.28v14.72l-4.17-1.12v-1.67l3.44-12.13.73.2Zm0,18.93v12.33l-.53,2.55-3.64-1v-15l4.17,1.13Zm0,40.21v18.81l-4.17-.74v-1.93l3.25-16.34.92.2Zm-4.17-9.8v-12.8l2.64.74-2.64,12.06Zm0-49.07.39-1.48-.39-.13v1.61Zm0-267.41.39-.2-.39-1.47v1.67Zm0-63.29a4.12,4.12,0,0,0,.72-2.33,4.17,4.17,0,0,0-.72-2.33v4.66Zm0-42.87a4.26,4.26,0,0,0,0-4.94Zm0-20.74v3.94a22.67,22.67,0,0,0-5,3.2V45a25.21,25.21,0,0,1,5-2.67Zm0,15.8V63A4.21,4.21,0,0,1,219,64.77a4.45,4.45,0,0,1-1.59-.34V56.69a4.66,4.66,0,0,1,1.59-.33,4.22,4.22,0,0,1,3.39,1.73Zm0,14.54V89.3a48,48,0,0,1,0-16.67Zm0,28.61v4.66a4,4,0,0,1-3.13,1.54,3.66,3.66,0,0,1-1.85-.46v-6.87a4.41,4.41,0,0,1,1.85-.47,4,4,0,0,1,3.13,1.6Zm0,13.53v1.74a3.27,3.27,0,0,1-.13-.87,3.34,3.34,0,0,1,.13-.87Zm0,6.48c-1.8-2.6-3.45-5.14-5-7.68v6.61c.67,1.14,1.39,2.2,2.06,3.26-.13.07-1,.27-2.06.6v3.54c1.65-.54,3.32-1,5-1.4v-4.93Zm0,7.93v14a7.36,7.36,0,0,1-5-5v-3.94a7.6,7.6,0,0,1,5-5.06Zm0,18.41v3.33c-1.66.39-3.33.93-5,1.4V149l5-1.4Zm0,6.59v1.67l-.48-1.53.48-.14Zm0,13.34-3.66-12.2-1.32.47v15.13l5-1.73v-1.67Zm0,267.47v1.61l-3.66,12.26-1.32-.47V433.25l5,1.74Zm0,13.27-.48,1.6.48.07v-1.67Zm0,5.87v15l-5-1.34v-.6l3.78-13.33,1.2.27Zm0,18.74v12.8l-.94,4.27-4-1V471.6l5,1.27Zm0,38.74v1.93l-.4-.07.4-1.86ZM217.45,91V84.24a4.13,4.13,0,0,1,1.72,3.39,4.23,4.23,0,0,1-1.72,3.4Zm0-14.87V69.9a4.22,4.22,0,0,1,0,6.26Zm0-31.2v4.47a32.09,32.09,0,0,0-6.11,7.07V50.63A28.44,28.44,0,0,1,217.45,45Zm0,11.73v7.74a4.22,4.22,0,0,1,0-7.74Zm0,13.21v6.26a4,4,0,0,1-2.73,1.07,4.27,4.27,0,0,1-3.38-1.66V70.5a4.25,4.25,0,0,1,3.38-1.67,4,4,0,0,1,2.73,1.07Zm0,14.34V91a4.26,4.26,0,0,1-2.4.8,4.34,4.34,0,0,1-3.71-2.2v-4a4.21,4.21,0,0,1,3.71-2.2,4.27,4.27,0,0,1,2.4.81Zm0,15.87V107a3.95,3.95,0,0,1,0-6.87Zm0,13.46a107.82,107.82,0,0,1-6.11-11.8v7.54c1.86,3.67,3.92,7.26,6.11,10.87v-6.61Zm0,10.47v3.54c-2,.6-4.06,1.27-6.11,1.93v-5.93c.53.6,1.06,1.13,1.59,1.73l4.52-1.27Zm0,10.2v3.94a9.72,9.72,0,0,1-.27-2,8.73,8.73,0,0,1,.27-1.94Zm0,14.75v3.33l-6.11,2v-3.4c2-.67,4.11-1.34,6.11-1.93Zm0,6.8v15.13l-2.34.81-3.77-10.28v-3.54l6.11-2.12Zm0,277.46v15.14l-6.11-2.13v-3.6l3.77-10.27,2.34.86Zm0,33.94v.6h-.14l.14-.6Zm0,4.41v17.34l-5.78-1.55,4.58-16.12,1.2.33Zm-6.11-1.2v-.67l.19.07-.19.6Zm0-4.53V450.53l5.58,1.93-4.12,14-1.46-.54Zm0-30.95,1.19-2.93-1.19-.54v3.47Zm0-262.2,1.19-.53-1.19-2.93v3.46Zm0-24.67v-11a7.24,7.24,0,0,1,0,11Zm0-97.42V56.5c-.54.86-1.07,1.79-1.6,2.79A41.52,41.52,0,0,0,208,64v-8.4a33.15,33.15,0,0,1,3.32-4.93Zm0,19.87v5.07a4.76,4.76,0,0,1-.79-2.54,4.68,4.68,0,0,1,.79-2.53Zm0,15.13v4a4.82,4.82,0,0,1-.47-2,4.9,4.9,0,0,1,.47-2Zm0,16.14v7.54c-1.19-2.4-2.33-4.87-3.32-7.27V92.3a78.16,78.16,0,0,0,3.32,9.47Zm0,21.81v5.93c-1.07.4-2.2.8-3.32,1.2V127c.67-.2,1.32-.47,2-.66-.66-.74-1.31-1.41-2-2.14v-4.34c1.07,1.27,2.19,2.47,3.32,3.74Zm0,13.47v11a6.63,6.63,0,0,1-2.65,1.46,17.24,17.24,0,0,0,1,1.94c.6-.2,1.13-.33,1.67-.53v3.4c-.87.34-1.73.6-2.6.93l-.72-1.46V135.38a7.57,7.57,0,0,1,3.32,1.67Zm0,20.86v3.54l-1.13-3.13,1.13-.41Zm0,11.35L208,160.65v13.6l3.32-1.53v-3.46Zm0,262.19v3.47l-3.32,8.6V429.93l3.32,1.52Zm0,11.21-1.13,3.2,1.13.4v-3.6Zm0,7.87v15.34L208,464.66v-11.6l1.2-3.26,2.12.73Zm0,19.2v.67l-2.52,9.07-.8.53V468.53ZM208,55.56V64c-2.92,9.34-2.66,18.81,0,28.34V102a75.39,75.39,0,0,1-3.32-9.4V62.89c.4-1.19.8-2.4,1.26-3.6-.46-.07-.86-.07-1.26-.13V56.5c.86.13,1.72.27,2.59.46a12.54,12.54,0,0,1,.73-1.4Zm0,64.28v4.34l-3.32-3.54v-4.53c1.06,1.19,2.12,2.47,3.32,3.73Zm0,7.14v3.73c-1.12.47-2.19.87-3.32,1.33v-3.93c1.13-.4,2.2-.73,3.32-1.13Zm0,8.4v18.41l-3.32-6.47V135.45a8,8,0,0,1,1.86-.2,10.55,10.55,0,0,1,1.46.13Zm0,25.27v13.6l-3,1.34-.32-.74v-14.8l2.59-1.19.73,1.79Zm0,269.28v13.59l-.73,1.74-2.59-1.2V429.32l.32-.73,3,1.34Zm0,23.13v11.6l-3.32-1.12v-1.41l3.32-9.07Zm0,15.47V480l-3.32,2.13V467.32l3.32,1.21Zm-3.32-18.6v-1.4l.46.19-.46,1.21Zm0-294.34v-1.34l.46,1.13Zm0-99.09v2.66c-1.27-.06-2.53-.13-3.79-.13V56.17c1.26.06,2.52.19,3.79.33Zm0,6.39V92.64a59.45,59.45,0,0,1-2.33-13.74c-.52-.07-1-.07-1.46-.13V75a10.55,10.55,0,0,1,1.46.07,46.6,46.6,0,0,1,2.33-12.21Zm0,53.22v4.53c-1.33-1.53-2.59-2.93-3.79-4.4v-4.8c1.14,1.46,2.46,3,3.79,4.67Zm0,12V132c-1.27.47-2.46,1-3.71,1.54a22,22,0,0,1,1.44,2.93,9.25,9.25,0,0,1,2.27-1.06v11.87l-3.79-7.54V129.51l3.79-1.4Zm0,26.14-3.79-9.73v12.8l3.79-1.73v-1.34Zm0,5.8v14.8l-3.79-8.26v-4.8l3.79-1.74Zm0,269.27v14.74l-3.79-1.74v-4.8l3.79-8.2Zm0,19.21v1.4l-3.79,9.74V446.79l3.79,1.74Zm0,13.6v1.41l-.47-.14.47-1.27Zm0,5.19v14.81l-3.06,1.94-.73-2.6V472l2-5.27,1.79.59Zm-3.79-35.6L202.7,428l-1.79-1.06v4.8Zm0-254.46,1.79-1.07-1.79-3.73Zm0-121.09V59a26.48,26.48,0,0,0-3.91.26V56.23c1.26-.06,2.59-.06,3.91-.06Zm0,18.86v3.74a25.06,25.06,0,0,0-3.91.06v-3.6a36.19,36.19,0,0,1,3.91-.2Zm0,36.41v4.8c-1.4-1.6-2.73-3.2-3.91-4.73v-5.27c1.18,1.67,2.45,3.4,3.91,5.2Zm0,18.07v10.27l-2.78-5.47a12,12,0,0,0-1.13-.73v-3.27a5.87,5.87,0,0,1,.73.46c1.07-.39,2.13-.86,3.18-1.26Zm0,15v12.8l-3.18,1.47-.73-1.47V143.25l2.86-1.34,1,2.61Zm0,17.27v4.8l-1.85-3.93,1.85-.87Zm0,10.67L197,164.59v14.87l3.91-2.2v-4.8Zm0,254.46v4.8l-3.91,7.8v-14.8l3.91,2.2Zm0,10.6-1.85,4,1.85.8v-4.8Zm0,9.27v12.88l-1,2.53L197,460.93V446.86l.73-1.54,3.18,1.47Zm0,25.21v9.47l-1.66-5.34,1.66-4.13ZM197,469.13v-4.27l1.32.6L197,469.13Zm0-329.88,1.32-.6L197,135.38v3.87Zm0-14.61v-6.47a3.24,3.24,0,1,1,0,6.47Zm0-53.14V63.23a4.17,4.17,0,0,1,3.58,4.13A4.28,4.28,0,0,1,197,71.5Zm0-15.27v3.06a30.59,30.59,0,0,0-4.19.74V56.77c1.4-.27,2.8-.41,4.19-.54Zm0,7V71.5c-.19,0-.4.06-.6.06a4.16,4.16,0,0,1-3.59-2.13v-4.2a4.26,4.26,0,0,1,3.59-2.07,1.73,1.73,0,0,1,.6.07Zm0,12v3.6a13.15,13.15,0,0,0-4.19,1V76.1a24.56,24.56,0,0,1,4.19-.87Zm0,31v5.27c-1.52-2.07-2.93-4-4.19-5.8V99.77a66.33,66.33,0,0,0,4.19,6.47Zm0,11.93v6.47a3.24,3.24,0,0,1,0-6.47Zm0,12.14v3.27c-1.46-1-2.86-2-4.19-2.93v-3.48c1.33,1.07,2.73,2.08,4.19,3.14Zm0,5.07-.4-.93-3.79-1.94v8.67l4.19-1.93v-3.87Zm0,7.87v14.07l-4.19-9.07v-3.07l4.19-1.93Zm0,21.34v14.87l-1.39.8-2.8-4.87v-9.94l3.59-2.06.6,1.2Zm0,260.13v14.8l-.6,1.2-3.59-2v-10l2.8-4.8,1.39.8Zm0,22.14v14.07L192.81,459v-3.07l4.19-9.07Zm0,18v4.27l-2.06,5.74-2.13,1.06V463l4.19,1.86Zm-4.19-18.4V443.4l1.2.66-1.2,2.4Zm0-20.54,1.53-2.53-1.53-1.07v3.6Zm0-244.13,1.53-1-1.53-2.53v3.53Zm0-21v-3.07l1.2,2.4Zm0-104V60a10,10,0,0,0-1.39.33V57.09a10,10,0,0,1,1.39-.32Zm0,8.46v4.2a3.74,3.74,0,0,1-.6-2.07,4,4,0,0,1,.6-2.13Zm0,10.87v3.73a7,7,0,0,0-1.39.73v-4a9.48,9.48,0,0,1,1.39-.47Zm0,23.67v5.94c-.46-.74-.93-1.47-1.39-2.14V97.24a23.58,23.58,0,0,0,1.39,2.53Zm0,27.4v3.48c-.46-.4-.93-.74-1.39-1.07v-3.47c.46.34.93.73,1.39,1.06Zm0,5.34v8.67l-1.39.6v-10l1.39.74Zm0,12.67v3.07l-1.19-2.53,1.19-.54Zm0,12.54v3.07l-1.39.8v-6.67l1.39,2.8Zm0,7.73v9.94l-1.39-2.4v-6.73l1.39-.81Zm0,12.81v3.53l-1.39,1v-6.87l1.39,2.34Zm0,244.06v3.6l-1.39,2.26v-6.8l1.39.94Zm0,6.4v10l-1.39-.81v-6.73l1.39-2.47Zm0,14.68v3.06l-1.39,2.8v-6.67l1.39.81Zm0,12.53V459l-1.19-.54,1.19-2.53Zm0,7.07v12.93l-1.39.67V462.33ZM191.42,57.09v3.27c-.67.2-1.39.4-2.06.67V57.56c.67-.2,1.39-.33,2.06-.47Zm0,19.48v4a7.38,7.38,0,0,0-2.06,1.94V77.56a20.56,20.56,0,0,1,2.06-1Zm0,20.67v6.33c-.72-1.2-1.39-2.33-2.06-3.4V92.64a35.29,35.29,0,0,0,2.06,4.6Zm0,28.87v3.47c-.67-.54-1.39-1.07-2.06-1.6v-3.6c.67.6,1.39,1.13,2.06,1.73Zm0,5.66v10l-1.39.66-.67-1.26V130.77l2.06,1Zm0,23.15v6.67l-2.06,1.13V150.78l2.06,4.14Zm0,11.34V173l-2.06-3.54v-2.06l2.06-1.13Zm0,9.66-2.06-3.33v11.6l2.06-1.4v-6.87Zm0,245.46v6.8l-2.06,3.41V420l2.06,1.39Zm0,9.81-2.06,3.53v2.07l2.06,1.13v-6.73Zm0,11.4v6.67l-2.06,4.07V441.39l2.06,1.2Zm0,19.74V476.6l-2.06,1.07V463l.67-1.34,1.39.67Zm-2.06-349.82V107a3.82,3.82,0,0,1,1.14,2.73A4,4,0,0,1,189.36,112.51Zm0-54.95V61a24.39,24.39,0,0,0-3.58,1.53V58.89a34.08,34.08,0,0,1,3.58-1.33Zm0,20V82.5c-1.45,2.27-1.6,5.6,0,10.14v7.53a42.47,42.47,0,0,1-3.58-8.4V81.7a9.25,9.25,0,0,1,3.58-4.14Zm0,29.42v5.53a3.93,3.93,0,0,1-2.92,1.26h-.66v-8.06c.2,0,.4-.07.66-.07a4,4,0,0,1,2.92,1.34Zm0,17.4V128c-1.26-1-2.46-2-3.58-3.07v-3.8c1.12,1.14,2.32,2.2,3.58,3.27Zm0,6.39v10.41l-3.58-7.6v-4.66l3.58,1.85Zm0,20v11.94l-2.52,1.47-1.06-1.94V148.18l1.79-1,1.79,3.59Zm0,16.61v2.06l-.86-1.53.86-.53Zm0,5.2-2.38-4-1.2.86v13.41l1.79,2.6,1.79-1.27v-11.6Zm0,247.4v11.6l-2.38,4-1.2-.87V421.31l1.79-2.59,1.79,1.27Zm0,14.73-.86,1.54.86.53v-2.07Zm0,6.67v11.94L187.57,457l-1.79-1.07v-14l1.06-1.93,2.52,1.4Zm0,21.61v14.67l-2.19,1.13-1.39-8v-.2l3.58-7.6Zm-3.58-2.81v-.06h0v.06Zm0-316.14v0Zm0-67.42v-8.2a4.21,4.21,0,0,1,0,8.2Zm0-17.74v3.67a35.28,35.28,0,0,0-3.91,2.21v-4a27.05,27.05,0,0,1,3.91-1.87Zm0,9.54v8.2a4.45,4.45,0,0,1-3.91-1.2V69.62a4.19,4.19,0,0,1,3-1.25,4.85,4.85,0,0,1,.93.06Zm0,13.27V91.77c-1.26-4.07-1.19-7.47,0-10.07Zm0,24v8.06a4.09,4.09,0,0,1,0-8.06Zm0,15.4v3.8c-1.4-1.2-2.65-2.4-3.91-3.59v-4.14c1.18,1.33,2.51,2.6,3.91,3.93Zm0,7.81v4.66l-3-6.14,3,1.48Zm0,15.06v.07l-3.91,2.2v-9.87l3.91,7.6Zm0,4.2v14.07l-3.91-6.73v-5.14l3.91-2.2Zm0,21.27v13.41l-3.91-5.6v-5.14l3.91-2.67Zm0,251.86v13.41l-3.91-2.66v-5.14l3.91-5.61Zm0,20.61v14l-3.91-2.2v-5.07l3.91-6.74Zm0,18.21v.06l-3.91,8.14V457.85l3.91,2.28Zm0,10.47v.2l-.06-.14.06-.06Zm-3.91-28,2.38-3.93L181.87,437v5.6Zm0-21.21,2.78-4-2.78-2.2v6.2Zm0-232.39,2.78-2.26-2.78-3.94V189Zm0-21.8,2.38-1.66-2.38-3.94v5.6Zm0-66.08V94.17a3.91,3.91,0,0,1,2,3.47,3.84,3.84,0,0,1-2,3.47Zm0-14.61V82.7a4.1,4.1,0,0,1,.45,1.94A3.64,3.64,0,0,1,181.87,86.5Zm0-25.74v4a30,30,0,0,0-8.11,8.13V67.22a33.18,33.18,0,0,1,8.11-6.46Zm0,8.86a4.16,4.16,0,0,0-1.14,2.94,4.06,4.06,0,0,0,1.14,2.87V69.62Zm0,13.08v3.8a4.17,4.17,0,1,1,0-3.8Zm0,11.47v6.94a3.63,3.63,0,0,1-1.87.53,4,4,0,0,1-4-4,4,4,0,0,1,4-3.94,3.59,3.59,0,0,1,1.87.47Zm0,23v4.14a73.36,73.36,0,0,1-8.11-9.62v-5.8a60.7,60.7,0,0,0,8.11,11.28Zm0,19.2v9.87l-4.06,2.34-4.05-6.88V132l4.64-2.4,3.47,6.74Zm0,14v5.14l-2.19-3.87,2.19-1.27Zm0,11.21-5.05-8.41-3.06,2.07v9.61l3.71,5.4,4.4-3.07v-5.6Zm0,10.53v5.14l-2.4-3.47,2.4-1.67Zm0,10.67-5.39-7.73-2.72,2.2v9.07l4.45,5.6,3.66-2.94v-6.2Zm0,232.39v6.2l-5.39,7.67-2.72-2.19v-9l4.45-5.61,3.66,2.94Zm0,11.74-2.4,3.47,2.4,1.67v-5.14Zm0,10.07v5.6l-5.05,8.4-3.06-2.13v-9.53l3.71-5.4,4.4,3.06Zm0,11.67-2.19,3.8,2.19,1.27v-5.07Zm0,9.19v10.48l-.21.53-7.9,3.48V462.26l4.05-6.66,4.06,2.25Zm-8.11-2.33v-2.25l1,.66-1,1.59Zm0-43.33v-3.68l1.67,1.54-1.67,2.14Zm0-216.6V192l1.67,2.12-1.67,1.47Zm0-44.67v-2.27l1,1.6Zm0-83.7V72.9c-.59,1-1.19,2-1.72,3.07V69.36c.53-.73,1.13-1.46,1.72-2.14Zm0,38.68v5.8c-.59-.93-1.19-1.8-1.72-2.73v-6.73c.53,1.2,1.07,2.4,1.72,3.66Zm0,26.14v9.67l-1.72-3v-5.79l1.72-.88Zm0,16.61v2.27l-1.72,1.2v-6.34l1.72,2.87Zm0,6.6v9.61L172,162.32v-5.8l1.72-1.27Zm0,22v9.07L172,184.12v-5.46l1.72-1.4Zm0,14.74v3.59L172,197.2v-7.47l1.72,2.27Zm0,216.51v3.68L172,414.45V407l1.72,1.53Zm0,9.34v9l-1.72-1.4v-5.4l1.72-2.21Zm0,21.48v9.53l-1.72-1.2v-5.8l1.72-2.53Zm0,13.94v2.25L172,458.39v-6.33l1.72,1.21Zm0,9v10.08l-.2.07-.72-8.54.92-1.61Zm-1.72-28v-3.6l1.59,1.27L172,434.26Zm0-260.74v-3.59l1.59,2.26Zm0-104.16V76c-3.65,7.33-4.18,16.47,0,26.27V109c-9.23-15.27-7.57-29.74,0-39.61Zm0,63.56v5.79l-2.67-4.47,2.67-1.32Zm0,12.86-6-9.8-5.63,3.86v5.81l6.76,9.8,4.86-3.33v-6.34Zm0,10.74v5.8l-2.73-3.93,2.73-1.87Zm0,13.41-6.65-9.54-5,4v4.47l6.76,8.53,4.86-3.87v-3.59Zm0,8.73v5.46l-2.67-3.33,2.67-2.13Zm0,11.07-5.25-6.81-6.37,5.61v1l8.83,10.07,2.79-2.4v-7.47ZM172,407v7.47l-5.25,6.79-6.37-5.59v-1l8.83-10.12L172,407Zm0,13.08-2.67,3.33,2.67,2.07v-5.4Zm0,10.6v3.6l-6.65,9.47-5-3.94v-4.46l6.76-8.54,4.86,3.87Zm0,11.2-2.73,3.93,2.73,1.87v-5.8Zm0,10.2v6.33l-6,9.81-5.63-3.94v-5.8l6.76-9.8,4.86,3.4Zm-11.62-1.66,2.72-3.88-2.72-2.13v6Zm0-22.08,3.32-4.34-3.32-3v7.34Zm0-17.53,6.91-7.28-5.78-5.86-1.13,1v12.15Zm0-202.73v-.33l.13.14-.13.19Zm0-2.86V192.8l7.57,8-5.9,6-1.67-1.6Zm0-22.08v-7.26l3.32,4.33-3.32,2.93Zm0-23.33v-6.07l2.72,3.87Zm0-19.95v5.81L160,145v-4.8l.47-.34Zm0,13.88v6.07l-.47.33v-7l.47.6Zm0,10.67v4.47l-.47-.61v-3.53l.47-.33Zm0,11.47v7.26l-.47.41v-8.27l.47.6Zm0,12.67v1L160,189v-.06l.47-.4Zm0,4.27v12.4l-.47-.41V192.26l.47.54Zm0,14.93v.33l-.47.54v-1.27l.47.4Zm0,190.91v12.15l-.47.46V399l.47-.4Zm0,16v1l-.47-.4v-.07l.47-.54Zm0,6.34v7.34l-.47.6v-8.33l.47.39Zm0,14.35v4.46l-.47-.4v-3.53l.47-.53Zm0,9.06v6l-.47.65V444l.47.4Zm0,14.07v5.8l-.47-.34v-4.79l.47-.67ZM160,396.58v-.07l.06.07Zm0-256.4V145l-2.24-3.2,2.24-1.6Zm0,12.94L153.58,144l-1,.73v14.41l3.39,4.27,4-3.27v-7Zm0,11.6v3.53l-1.73-2.13,1.73-1.4Zm0,10.54v8.27l-2.38,2.13-5-5.73v-9l2.4-2.13,5,6.47Zm0,13.67v0Zm0,3.33v12.53l-7.37-6.86v-1.87l5.58-5.67,1.79,1.87Zm0,15.07-7.37-6.67v11.6l2.66,2.07L160,208.6v-1.27Zm0,189.18v.07l-7.37,6.6V391.84l2.07-1.66,5.3,6.33Zm0,2.53-7.37,6.8v3l4.92,5,2.45-2.6V399Zm0,16.14v0Zm0,5.41v8.33l-5,6.47-2.4-2.14v-9.07l5-5.67,2.38,2.08Zm0,15.27v3.53l-1.73-1.34,1.73-2.19Zm0,8.13v7.06l-6.37,9.14-1-.73V445l3.39-4.2,4,3.2Zm0,15.14-2.24,3.27,2.24,1.52v-4.79Zm-7.37-41.28v-3.21l1.6,1.62-1.6,1.59Zm0-29.67v-.07h0v.07Zm0-170.91v-1.2l.53.39-.53.81Zm0-27,2.27-2.33-2.27-2.4Zm0-45.55v14.41l-4.45-5.54v-5.33l4.45-3.54Zm0,26.21v9l-4.45-5v-.07l4.45-3.93Zm0,14.61v4.73L149,194l-.87-.8V180.86l4.45,4.67Zm0,10.53v1.87l-.93-.87.93-1Zm0,4.6v11.6l-4.45-3.53v-8.26l1.86-2.21,2.59,2.4Zm0,15.41v1.2l-4.24,6.06-.21-.06V212.6l4.45,3.47Zm0,172v.07l-4.45,3.33v-9.67l4.45,6.27Zm0,3.73v11.34l-3.25,2.93-1.2-1.46v-9.34l4.45-3.47Zm0,14-1.53,1.48,1.53,1.53v-3Zm0,8.8v3.21l-4.45,4.67v-12l.21-.21,4.24,4.32Zm0,9.54v9.07l-4.45-3.93v-.07l4.45-5.07Zm0,20.81v14.47l-4.45-3.6v-5.27l4.45-5.6Zm-4.45,22.4v-5.66l2.6,2-2.6,3.65Zm0-23.59v-9.68l4.45,3.93-4.45,5.75Zm0-273.75v-9.66l4.45,5.73-4.45,3.93Zm0-27.61v-5.66l2.6,3.6Zm0-5.66v5.66l-3.51,2.81V131.71l3.51,5.07Zm0,11.47v5.33l-2.52-3.26,2.52-2.07Zm0,12.14v9.66l-2.45,2.14-1.06-1.14v-15.2l3.51,4.54Zm0,14.46v0Zm0,6v12.33l-3.51-3.33V177.65l.26-.26,3.25,3.47Zm0,19.61v8.26l-3.51-2.8v-1.2l3.51-4.26Zm0,12.13v10.67l-3.51-2.4v-11l3.51,2.73Zm0,169.24v9.67l-3.51,2.74V383.51l3.19-2.14.32.47Zm0,13.47v9.34l-3.51-4.2v-2.34l3.51-2.8Zm0,15.22v12l-3.51,3.67V413.72l3.51-3.19Zm0,18.72v.07h0v-.07Zm0,4.87v9.68l-3.51,4.52v-15.2l1.06-1.19,2.45,2.19Zm0,16.47v5.27l-2.52-2.06,2.52-3.21Zm0,11.14v5.66l-3.51,5V458.86l3.51,2.87Zm-3.51-52.41v-2.53l1.19,1.45-1.19,1.08Zm0-29.69v-2.79l1.19,2-1.19.79Zm0-150.89V224.8l1.73,1.14-1.73,2.8Zm0-30.41v-3.94l1.86,1.73Zm0-66.62v13.54l-1.94,1.6-3.1-3.94v-17.2l.58-.4,4.46,6.4Zm0,24.14v15.2l-5-5.8v-9.8l2.77-2.53,2.27,2.93Zm0,21.8v12.21l-5-4.73v-2.27l5-5.21Zm0,16.74-5-4.53v11.47l1.58,1.26,3.46-4.26v-3.94Zm0,10.34v1.2l-.6-.46.6-.74Zm0,5.14v11l-5-3.4v-6.54l2.25-3.2,2.79,2.14Zm0,14.93v3.94l-2.58,4.4-2.46-1.34V221.53l5,3.27Zm0,152v2.79l-5,3.27V372.84l2-1.13,3,5.13Zm0,6.67v10.74l-3.38,2.53-1.66-2.33v-7.6l5-3.34Zm0,14.6v2.34L143.41,399l1.21-.93Zm0,8.68v2.53l-5,4.53V402.59l.91-.75,4.13,5Zm0,6.93-5,4.66v3.67l4.57,4.67.47-.53V413.72Zm0,19.4v15.2l-2.27,2.87-2.77-2.47v-9.8l5-5.8Zm0,25.74v13.55l-4.46,6.46-.58-.47V461.26l3.1-3.93,1.94,1.53Zm-5-27.81v-3.86l1.92,1.93-1.92,1.93Zm0-61.88v-1.33l.51,1.07-.51.26Zm0-131.16v-2.47l1,.47-1,2Zm0-60.36,2.65-2.73-2.65-2.8Zm0-51.94v17.2l-2.8-3.53V128l2.8-2.27Zm0,29.74v9.8l-2.8-3.26v-4.08l2.8-2.46Zm0,16.67v5.53l-2.8,2.95V169.12l2.8,3Zm0,10.74v2.27l-1.13-1.07,1.13-1.2Zm0,7v11.47l-2.8-2.27v-11.8l2.8,2.6Zm0,21.07v6.54l-2.8-1.94v-.6l2.8-4Zm0,10.6V231.8l-2.8-1.66V219.67l2.8,1.86Zm0,14V238l-2.73,5.59h-.07v-9.67l2.8,1.61Zm0,132.3v1.33l-2.8,1.54v-8.6l2.8,5.73Zm0,5V382.9l-2.8,1.81V374.44l2.8-1.6Zm0,14v7.6l-2.8-3.94v-1.73l2.8-1.93Zm0,15.74v11.26l-2.8,2.47V404.85l2.8-2.26Zm0,15.79v3.67l-1.87-1.93,1.87-1.74Zm0,8.81v3.86l-2.8,2.95v-9.69l2.8,2.88Zm0,11.73v9.8l-2.8-2.46v-4.14l2.8-3.2Zm0,22.34V478.4l-2.8-2.27V464.79l2.8-3.53Zm-2.8-3.27v-5.73l2.59,2.34L136.78,458Zm0-58.68v-1.79l.8,1.12-.8.67Zm0-191.44v-3.14l1.39,1.13-1.39,2Zm0-56v-5.73l2.59,3.39Zm0-23.87v11.4l-5.51-7,5.51-4.4Zm0,18.14-6.1-7.87v16.94l1,1.2,5.11-4.54v-5.73Zm0,11.79V162l-2.06-2.27,2.06-1.81Zm0,11.21V180.6l-1.05,1.06-5-4.74V162.78l.06-.06,6,6.4Zm0,18.14v11.8l-6.1-4.87v-1.66l5.11-6.14,1,.87Zm0,17.47v3.14l-3.38,4.86-2.72-1.8V200l6.1,4.73Zm0,10.2v.6l-.27-.19.27-.41Zm0,4.74v10.47l-6.1-3.47V224.4l3.72-6.33,2.38,1.6Zm0,14.26v9.67l-6.1-2.93V230.6l6.1,3.33Zm0,128.18v8.6l-6.1,3.33v-9.87l5.77-2.73.33.67Zm0,12.33v10.27l-2.92,1.94-3.18-5.34v-3.46l6.1-3.41Zm0,14.34v1.73l-.86-1.2.86-.53Zm0,8.74v1.79l-6.1,4.67V393.32l2.11-1.41,4,5.61Zm0,7.33v11.47l-1.72,1.53-4.38-5.2v-3l6.1-4.8Zm0,19.46V434l-6.1,6.32V426.45l4.3-3.93,1.8,1.79Zm0,17.81v4.14l-2.06-1.81,2.06-2.33Zm0,10.14V458l-6.1,7.88V448.92l1-1.13,5.11,4.47Zm0,12.53-5.51,6.94,5.51,4.4V464.79Zm-6.1-43.34v-3.2l1.52,1.87-1.52,1.33Zm0-60.28V352l1.19-.46,3,7.74-4.17,1.86Zm0-104.36v-1.13l.26.13-.26,1Zm0-3.73v-9.27l4.57,2-3.05,7.88-1.52-.6Zm0-66.22,2.25-2.74-2.25-2Zm0-48.61v16.94l-.54-.61V137.52l.54.73Zm0,24.53v14.14l-.54-.53v-13l.54-.61Zm0,19.35v4.73l-.54.66v-5.93l.54.54Zm0,10.4v1.66l-.54-.4v-.6l.54-.66Zm0,7.47v10.93l-.54-.4V199.6l.54.4Zm0,24.4v2.27l-.54-.27v-1.06l.54-.94Zm0,6.2v10.07l-.54-.2V230.28l.54.32Zm0,13.21v9.27l-.54-.2v-9.34l.54.27Zm0,11.87v1.13l-.54,1.94v-3.27l.54.2Zm0,96.35v9.14l-.54.21v-9.15l.54-.2Zm0,12.14V374l-.54.27v-9.87l.54-.27Zm0,13.68v3.46l-.54-.93v-2.21l.54-.32Zm0,15.47V404l-.54.4V393.72l.54-.4Zm0,16.33v3l-.54-.67v-1.93l.54-.4Zm0,8.6v3.2l-.54.46v-4.26l.54.6Zm0,8.2v13.87l-.54.6V427l.54-.54Zm0,22.47v16.95l-.54.72v-17l.54-.67Zm-.54-99.28V347.7l.46,1.8-.46.14Zm0-132.31V216.2l.46.33Zm0-79.81v17.06l-.53-.6V136.85l.53.67Zm0,25.87v13l-.53-.47v-12l.53-.53Zm0,18.2v5.93l-.53.61v-7l.53.46Zm0,11.6v.6l-.32-.26.32-.34Zm0,6.41v10.93l-.53-.33v-11l.53.4Zm0,16.6v1.13l-.53.87v-2.33l.53.33Zm0,9.14v1.06l-.53-.26.53-.8Zm0,4.94v10.19l-.53-.27V230l.53.27Zm0,13.26v9.34l-.53-.21v-9.39l.53.26Zm0,11.94v3.27l-.53,1.79v-5.2l.53.14Zm0,92.22v1.94l-.53.2v-4l.53,1.87Zm0,4.53v9.15l-.53.25v-9.26l.53-.14Zm0,12.21v9.87l-.53.34v-10l.53-.2Zm0,13.73v2.21l-.53-.87v-1.08l.53-.26Zm0,15.55v10.66l-.53.4V394.05l.53-.33Zm0,16.33V412l-.53-.59v-.94l.53-.4Zm0,7.6v4.26l-.53.48V417l.53.66Zm0,9.34v13.93l-.27.27-.26-.27V427.45l.53-.46Zm0,22.6v17l-.53.66V450.2l.53-.61Zm-.53-61.08v-1.06l.46.73Zm0-251.66V154l-5.05-5.73V138.12l3.53-3.14,1.52,1.87Zm0,27.07v12l-5.05-4.66v-2.2l5.05-5.14Zm0,17.21v7L127,191.4l-2.4-1.94V176.59l5.05,4.54Zm0,18.07v11l-5.05-3.4v-6.74l2.2-3.07,2.85,2.21Zm0,16.67v2.33l-3.31,5.53-1.74-1V212.6l5.05,3.27Zm0,14.14V240.2l-5.05-2.39v-1.6l3.47-7.08,1.58.88Zm0,13.27v9.39l-5.05-1.79v-9.8l5.05,2.2Zm0,12.06v5.2l-1,3.34-4.06-1.06v-9.21l5.05,1.73Zm0,90.49v4l-5.05,1.66v-9l3.8-1,1.25,4.32Zm0,6.54v9.26l-5.05,2.21v-9.6l5.05-1.87Zm0,12.27v10l-2.06,1.12-3-6.07V367l5.05-2.33Zm0,13.79v1.08l-.46-.81.46-.27Zm0,9v1.06l-5.05,3.2v-9.94l1.27-.73,3.78,6.41Zm0,6.6v10.73l-3.52,2.67-1.53-2.07v-8l5.05-3.33Zm0,16.4v.94l-.46-.54.46-.4Zm0,6.54v5.4l-5.05,4.47V414.33l1.68-1.35,3.37,4Zm0,10.46v13.47l-5.05-5.06v-3.74l5.05-4.67Zm0,22.75v17.05l-1.52,1.95-3.53-3.14V455.93l5.05-5.73Zm-5.05,23v-1.6l.74.67-.74.93Zm0-26.94v-3.94l1.93,1.93-1.93,2Zm0-105.23v-8.66l1.68-.27,1.58,8.13-3.26.8Zm0-11.87v-3.6l.46,3.53-.46.07Zm0-47.48v-5.33l.67.13-.67,5.2Zm0-8.53v-8.81l3.53.8-1.6,8.34-1.93-.33Zm0-110.63v-5.87l2.8,3-2.8,2.87Zm0-30v-1.6l.74,1Zm0-1.6v1.6L124,133v-2.86l.52.73Zm0,7.21v10.13l-.52-.66v-9l.52-.46Zm0,18.53v5.87l-.52.53v-6.93l.52.53Zm0,12.41v2.2l-.52-.54v-1.07l.52-.59Zm0,7.53v12.87l-.52-.4V176.12l.52.47Zm0,23.47v6.74l-.52-.4v-5.54l.52-.8Zm0,12.54v10.14l-.52-.27V212.19l.52.41Zm0,23.61v1.6l-.52-.21v-.34l.52-1Zm0,4.87v9.8l-.52-.2v-9.81l.52.21Zm0,12.53v9.21l-.52-.13v-9.28l.52.2Zm0,10.73v8.81L124,273v-8.81l.52.13Zm0,12v5.33l-.4,3.21H124v-8.61l.52.07Zm0,49.21v3.6l-.52.07v-8.07l.52,4.4Zm0,6.81V341l-.52.14v-8.68l.52-.12Zm0,10.12v9l-.52.19v-9.06l.52-.14Zm0,11.75v9.6l-.52.21v-9.61l.52-.2Zm0,12.73v2.73l-.52-1.06v-1.4l.52-.27Zm0,14.8v9.94l-.52.39V382l.52-.27Zm0,15.61v8l-.52-.8v-6.8l.52-.4Zm0,16.95v12.53l-.52.46V414.71l.52-.38Zm0,17.79v3.74l-.52-.6v-2.67l.52-.47Zm0,10.2v3.94l-.52.6v-5.07l.52.53Zm0,13.61v10.13l-.52-.46v-9.07l.52-.6Zm0,15.67v1.6l-.52.72v-2.79l.52.47ZM124,228.07v-.27l.12.07Zm0-97.89V133l-.47.41v-3.87l.47.6Zm0,8.4v9l-.47-.54V139l.47-.4Zm0,17.54v6.93l-.47.47v-7.93l.47.53Zm0,13.53v1.07l-.47-.46v-.14l.47-.47Zm0,6.47v12.94l-.47-.4V175.73l.47.39Zm0,24.74v5.54l-.47-.34v-4.53l.47-.67Zm0,11.33v10.28l-.47-.27V211.94l.47.25Zm0,15.61v.27l-.47.94v-1.47l.47.26Zm0,9.46v.34l-.07-.06.07-.28Zm0,3.61v9.81l-.47-.2v-9.87l.47.26Zm0,12.54v9.28l-.47-.14v-9.27l.47.13Zm0,10.8V273l-.47-.07v-8.87l.47.13Zm0,12.07v8.61l-.47-.07v-8.61l.47.07Zm0,44.88v8.07l-.47.13V320.9l.47-.07v.33Zm0,11.33v8.68l-.47.13v-8.74l.47-.07Zm0,10.14v9.06l-.47.14v-9.07l.47-.13Zm0,11.81v9.61l-.47.19v-9.6l.47-.2Zm0,12.8v1.4l-.47-.93v-.27l.47-.2Zm0,14.8V392.1l-.47.28V382.31L124,382Zm0,15.74v6.8l-.47-.66v-5.81l.47-.33Zm0,16.93v12.61l-.47.46V415.12l.47-.41Zm0,17.88v2.67l-.47-.47v-1.73l.47-.47Zm0,9.2v5.07l-.47.47v-6l.47.47Zm0,14.74v9.07l-.47-.4v-8.13l.47-.54Zm0,14.6v2.79l-.47.68v-3.87l.47.4Zm-.47-94v-.27l.07.2-.07.07Zm0-58.68v-.94l.07.94Zm0-27.81v-2.13h.19l-.19,2.13Zm0-95.42v-.34l.19.14Zm0-65.62v3.87l-1.66,1.46v-7.53l1.66,2.2Zm0,9.4v8.07l-1.66-1.87v-4.73l1.66-1.47Zm0,16.61v7.93l-1.66,1.73v-11.4l1.66,1.74Zm0,14.53v.14l-.06-.07.06-.07Zm0,5.61v12.93l-1.66-1.33V174.19l1.66,1.54Zm0,19.13v.34l-1.66,2.4v-4l1.66,1.27Zm0,6.67v4.53l-1.66-1.13v-1.07l1.66-2.33Zm0,10.41V222.2l-1.66-.93V210.8l1.66,1.14Zm0,15.6V229l-1.66,3.39v-5.8l1.66.94Zm0,13.07v9.87l-1.66-.6V240.8l.34-.79,1.32.6Zm0,12.67v9.27l-1.66-.47v-9.41l1.66.61Zm0,10.8V273l-1.66-.33v-8.94l1.66.4Zm0,12.13v8.61l-1.66-.2v-8.74l1.66.33Zm0,12.28v2.13l-.46,6.26-1.2-.06v-8.53l1.66.2Zm0,29v.94l-1.66.19v-8.39l1.2-.07.46,7.33Zm0,3.41v8.46l-1.66.27v-8.54l1.66-.19Zm0,11.66v8.74l-1.66.4v-8.87l1.66-.27Zm0,10.2v9.07l-1.66.61v-9.21l1.66-.47Zm0,11.88v9.6l-1.66.73v-9.74l1.66-.59Zm0,12.8v.27l-.06-.2.06-.07Zm0,9.4v.27l-1.66.86v-4.46l1.66,3.33Zm0,5.47v10.07l-1.66,1.07V383.24l1.66-.93Zm0,15.8v5.81l-1.66-2.34v-2.4l1.66-1.07Zm0,17v12.66l-1.66,1.47V416.39l1.66-1.27Zm0,17.94v1.73l-.93-.93.93-.8Zm0,8.26v6l-1.66,1.73v-9.47l1.66,1.73Zm0,15.75v8.13l-1.66-1.53V459l1.66-1.93Zm0,13.66v3.87l-1.66,2.2v-7.54l1.66,1.47Zm-1.66-60.41v-2.47l1.13,1.6-1.13.87Zm0-102.49v-8.48l1.53.07-.06,8.41Zm0-180.45v7.53l-5.11,4.54-2.19-2.54V121.32l1.59-1.48,5.71,7.54Zm0,13.07v4.73l-2.33-2.66,2.33-2.07Zm0,13.4v11.4l-1.85,1.87L114.61,162V146.12l7.3,7.73Zm0,20.34v13.14l-7.3-5.87V180l5.85-7.07,1.45,1.27Zm0,19.4v4l-3.58,5.06-3.72-2.53v-12.2l7.3,5.66Zm0,10.27v1.07l-.53-.33.53-.74Zm0,6.94v10.47l-7.3-4.2V215.2l3.85-6.6,3.45,2.2Zm0,15.8v5.8l-1.45,3-5.85-2.72V222.6l7.3,4Zm0,14.2v9.08l-3-1.14,3-7.94Zm0,11.87v9.41l-7-1.94,2.57-8.93,4.46,1.46Zm0,11-7.3-1.8v9.47l7.3,1.27v-8.94Zm0,12.2v8.74l-7.3-.8v-9.2l7.3,1.26Zm0,12.41v8.53l-7.3-.46v-9l7.3.93Zm0,11.06v8.48l-7.3.06V299l7.3.4Zm0,10.88v8.39l-7.3.87v-8.94l7.3-.32Zm0,10.86v8.54l-7.3,1.33v-9.07l7.3-.8Zm0,11.74v8.87l-7.3,1.8v-9.33l7.3-1.34Zm0,10.4-7.3,2v.07l2.52,8.74,4.78-1.6v-9.21Zm0,12V365l-.14.06-3.31-8.53,3.45-1.27Zm0,18.28V378l-7.3,4V372.1l5.37-2.53,1.93,3.94Zm0,9.73v10.21l-4.06,2.6-3.24-5.54v-3.13l7.3-4.14Zm0,15.94v2.4l-1.12-1.6,1.12-.8Zm0,8.67v2.47l-7.3,5.6V404l3.13-2.07,4.17,5.94Zm0,8.54v12.86l-2.27,2-5-6.07v-3l7.3-5.8Zm0,23.2v9.47l-7.3,7.61V441.19l4.64-4.27,2.66,2.67Zm0,19.41v4.67l-2.33-2,2.33-2.66Zm0,10.26v7.54l-5.71,7.54-1.59-1.48V467.19l2.19-2.46,5.11,4.53Zm-7.3-33.87v-3.13l1.47,1.8-1.47,1.33Zm0-37.48v-.33l.13.27-.13.06Zm0-30.54V358.3l.2-.07,3,7.74-3.18,1.4Zm0-120.63v-9.27l3.66,1.6-3.07,7.87-.59-.2Zm0-38.68v-1.73l.73.47-.73,1.26Zm0-35.2V168l2.32,2.06Zm0-51.54v15.59l-6.51-7.33V127l6.51-5.72Zm0,24.87V162l-6.51-6.07v-3.07l6.51-6.66Zm0,21.8v4.87l-4.38,5.27-2.13-1.74V162.05l6.51,5.94Zm0,12v1.47l-.73-.54.73-.93Zm0,7.94v12.2l-6.51-4.47v-7.53l2.32-3.4,4.19,3.2Zm0,18.4v1.73l-4,6.87-2.46-1.46V202.06l6.51,4.27Zm0,8.87v1.87l-.86-.47.86-1.4Zm0,7.4v10.08l-6.51-3.07V227.8l3.39-6.93,3.12,1.73Zm0,14.87v9.27l-6.51-2.4V234.6l6.51,2.87Zm0,24.41v9.47l-2.12-.4,1.79-9.2.33.13Zm0,12.74v9.2l-4.59-.54,1.2-9.26,3.39.6Zm0,12.74v9l-5.7-.33.72-9.34,5,.67Zm0,11.59v8.94l-5.45.07.07-9.26,5.38.25Zm0,11.6v8.94l-5.11.6-.59-9.2,5.7-.34Zm0,11.34V331l-3.65.6-1.13-9.14,4.78-.53Zm0,12.28v9.33l-.66.13-1.74-9,2.4-.47Zm0,11.06v0Zm0,13.07v9.07l-6.51,2.87V360.7l6.51-2.4Zm0,13.8V382L111,384l-2.86-5.81v-3l6.51-3.08Zm0,15.28v3.13l-1.39-2.33,1.39-.8Zm0,10.2L110,389.85l-1.86,1.07v11.2l6.51-4.21v-.33Zm0,6.4v11.94l-4.91,3.66-1.6-2.26v-8.94l6.51-4.4Zm0,18.21v3l-1.52-1.8,1.52-1.2Zm0,10.07v3.13l-6.51,5.8v-14l1.33-1.07,5.18,6.14Zm0,8.93v15.48l-.93,1-5.58-5.72v-4.74l6.51-6Zm0,26v15.67l-6.51-5.79v-2.54l6.51-7.34ZM108.1,463v-5.08l2.46,2.48L108.1,463Zm0-106.63v-8.93l2.66-.74,2.33,8-5,1.67Zm0-12v-8.61h.2l1.53,8.14-1.73.47Zm0-74.62V261l2.06.54-1.59,8.27-.47-.07Zm0-11.87v-9.14l5.31,1.87-2.32,8.07-3-.8Zm0-38.28v-.33l.13.06-.13.27Zm0-72.75,3.39-3.54-3.39-3.67Zm0-19.81v2.54l-.87-.87v-.93l.87-.74Zm0,12.6v7.21l-.87.87v-9l.87.93Zm0,13.21v3.07l-.87-.8v-1.4l.87-.87Zm0,9.2v14.34l-.87-.59V161.32l.87.73Zm0,26.08v7.53l-.87-.53v-5.87l.87-1.13Zm0,13.93v11.41l-.87-.47V201.53l.87.53Zm0,17.21v.33l-.87,1.67V218.8l.87.47Zm0,8.53v1.81l-.73-.34.73-1.47Zm0,6.8v9.74l-.87-.33v-9.74l.87.33Zm0,14.14v9.14l-.87-.2v-9.2l.87.26Zm0,12.27v8.74l-.87-.13v-8.81l.87.2Zm0,74.75v8.61l-.87.19V336l.87-.2Zm0,11.68v8.93l-.87.27v-9l.87-.2Zm0,13.26v9.54l-.87.41V361l.87-.34Zm0,14.48v3l-.87-1.66v-.94l.87-.39Zm0,15.74v11.2l-.87.53V391.38l.87-.46Zm0,17.46v8.94l-.87-1.2v-7.21l.87-.53Zm0,18.81v14l-.87.73V427.85l.87-.66Zm0,20v4.74l-.87-.81v-3.19l.87-.74Zm0,10.73V463l-.87.87v-6.8l.87.85Zm0,16.61v2.54l-.87-.67v-.93l.87-.94Zm-.87-88.82v-1l.41.8Zm0-257.93v.93l-.4-.53.4-.4Zm0,10.93v9l-2.38,2.46V136.12l2.38,2.59Zm0,15v1.4l-.66-.67.66-.73Zm0,7.6V175.8l-2.38-1.94V159.12l2.38,2.2Zm0,27.94v5.87l-2.38-1.6v-.8l2.38-3.47Zm0,12.27V213l-2.38-1.33V200l2.38,1.53Zm0,17.27v2.47l-2.38,4.94v-8.74l2.38,1.33Zm0,15.47V244l-2.38-.86v-9.48l.13-.4,2.25,1Zm0,14.21v9.2l-2.38-.67v-9.33l2.38.8Zm0,12.33v8.81l-2.38-.47v-8.94l2.38.6Zm0,75.15v8.6l-2.38.6v-8.79l2.38-.41Zm0,11.68v9l-2.38.8v-9.13l2.38-.67Zm0,13.4v9.61l-2.38,1V361.9l2.38-.86Zm0,14.53v.94l-.32-.8.32-.14Zm0,9.14v1l-2.38,1.34v-7.27l2.38,4.93Zm0,6.67v11.27l-2.38,1.53v-11.4l2.38-1.4Zm0,17.53v7.21l-2.38-3.4v-2.19l2.38-1.62Zm0,18.94v14.07l-2.38,2.14V429.73l2.38-1.88Zm0,20.08v3.19l-1.58-1.66,1.58-1.53Zm0,9.14v6.8l-2.38,2.59v-11.8l2.38,2.41Zm0,18.4v.93l-.4-.4.4-.53Zm-2.38-52.55v-2.26l1.06,1.46-1.06.8Zm0-91v-8.47l1-.13,1.06,8.26-2.06.34Zm0-12V311.5h.07l.46,8.32-.53.07Zm0-12.33v-8.4h.33l-.06,8.4Zm0-12.2v-8.47l.73.07-.66,8.4Zm0-13.08v-8.6l2.25.4-1,8.34-1.26-.14Zm0-97.49v-4l1.8,1.4Zm0-48.67v14.06l-1.39,1.47-6.57-6.06v-9l4.3-4.4,3.66,3.94Zm0,23v14.74l-8-6.41v-2.26l6.23-7.6,1.73,1.53Zm0,21.67v4l-4.19,6-3.77-2.53v-13.6l8,6.13Zm0,11.94v.8l-.34-.27.34-.53Zm0,7.27v11.67l-8-4.53v-2l4.44-7.47,3.52,2.34Zm0,17.47v8.74l-.8,1.59-7.16-3.2v-9.67l2.57-.6,5.39,3.14Zm0,16.2v9.48l-3.18-1.21,3.18-8.27Zm0,14V257l-7.7-2.13L99.74,246l5.11,1.73Zm0,12.53v8.94l-8-1.47v-9.4l8,1.93Zm0,13.47v8.6l-8-.86v-9.14l8,1.4Zm0,13.21v8.47l-8-.47v-9l8,1Zm0,12.27v8.4l-8,.07v-8.88l8,.41Zm0,12.34v8.39l-8,.94V312l8-.46Zm0,11.93v8.47l-8,1.46v-9l8-.93Zm0,12.94v8.79l-8,1.94v-9.27l8-1.46Zm0,11.94v9.13l-5.51,1.87-2.45-8.54v-.26l8-2.2Zm0,13.59v9.74l-.34.2-3.32-8.6,3.66-1.34Zm0,17.88v7.27l-6,3.4-2-.41v-9.92l6.7-2.94,1.26,2.6Zm0,13v11.4l-4.24,2.74-3.72-6.28v-3.39l8-4.47Zm0,17.75v2.19l-1.07-1.47,1.07-.72Zm0,10.13v2.26l-8,6.07V415.72l3-2,4.91,6.94Zm0,9.07v14.33l-2.59,2.33L96.89,440v-3.93l8-6.33Zm0,24.93v11.8l-4.72,5-3.24-3.33v-10.8l5.64-5.07,2.32,2.4Zm-8-3.93v-4.21l2,2.4-2,1.81Zm0-75.69V364.71l.93-.34,3.31,8.67-4.24,2Zm0-134.7V229.8l4.7,2.2-3.38,8.8-1.32-.46Zm0-81.75,2.91-3.54-2.91-2.67v6.21Zm0-28.81V128l.86.94Zm0-1.8v1.8l-2.94,3v-8L96.89,128Zm0,8.6v9L94,142.91v-3.34l2.94-3Zm0,15.8v6.21L94,162.12V149.65l2.94,2.73Zm0,12.81v2.26l-1.13-.93,1.13-1.33Zm0,9.47v13.6l-2.94-2V172.39l2.94,2.27Zm0,30.47v2L96,206.6l.88-1.47Zm0,9.8v9.67l-2-.93L94,221.94V215.6l2.94-.67Zm0,14.87v10.54L94,239.27V228.4l2.94,1.4Zm0,28.48v9.4l-2.54-.4,1.79-9.2.75.2Zm0,14v9.14L94,281.08v-9.33l2.94.53Zm0,13.6v9L94,294.68v-9.19l2.94.39Zm0,12.87v8.88l-2.94.06v-9.13l2.94.19Zm0,13.21v8.87l-2.94.33v-9.07l2.94-.13Zm0,12.4v9l-2.94.47V324.7l2.94-.34Zm0,13.47v9.27l-1.07.27-1.72-9,2.79-.53Zm0,12.68v.26l-.08-.26Zm0,14.2V375L94,376.37V365.71l2.94-1Zm0,15.41V390L94,389.38v-7.47l.4-.67,2.54-1.12Zm0,17.13v3.39l-1.47-2.53,1.47-.86Zm0,18.47V429L94,431.19V417.65l2.94-1.93Zm0,20.34V440l-2-2.4,2-1.53Zm0,10.46v4.21L94,453.39V443.06l2.94,3.46Zm0,10.81v10.8L94,465.2V460l2.94-2.67ZM94,477.6V472l2.73,2.74L94,477.6Zm0-116.7v-7.13l1.94,6.46L94,360.9ZM94,253v-8.74l2.34.8Zm0-128.18v8l-5.3,5.47-2.92-2.73V117l.53-.53L94,124.77Zm0,14.8v3.34l-1.64-1.53L94,139.57Zm0,10.08v12.47L92.43,164l-6.7-5.27V148.25l2.92-3.54,5.3,4.94Zm0,22.74v13.87l-8.22-5.6v-.87L92,170.85l2,1.54Zm0,43.21v6.34l-2.84-5.67L94,215.6Zm0,12.8v10.87l-5-1.8-3.19-4.66v-2.67l6.91-2.34,1.31.6Zm0,15.81V253l-.26,1.12-8-2v-9.81l1.46-.53L94,244.21Zm0,27.54v9.33l-2.17-.26,1.13-9.27,1,.2Zm0,13.74v9.19l-3.44-.2.73-9.33,2.71.34Zm0,13.07v9.13H90.71l.07-9.26,3.17.13Zm0,13.53v9.07L91,321.5l-.52-9.21,3.44-.2Zm0,12.61v9.13l-1.31.27L91.5,325,94,324.7Zm0,29.07v7.13l-7.22,2.61-1-.34v-9.93l7.57-1.87.65,2.4Zm0,11.94v10.66l-1.85.87-6.37-2.06v-3.61l2.71-3.86,5.51-2Zm0,16.2v7.47l-3.44-.81L94,381.91Zm0,35.74v13.54l-2.78,2.2-5.44-7.67v-2.53L94,417.65Zm0,25.41v10.33l-6.23,5.74-2-2.33V444.66l5.84-4.53L94,443.06ZM94,460v5.2l-2.65-2.73L94,460Zm0,12v5.6l-8.22,8.8V467.25l1.93-1.72L94,472ZM85.73,349.56v-9.79l4.78-.87L92.24,348l-6.51,1.58Zm0-14.53v-9.54l2.18-.26,1.14,9.27-3.32.53Zm0-13.2v-9.41l1.13-.07.6,9.27-1.73.21Zm0-14v-9.48l1.46.08-.06,9.4Zm0-13.54v-9.61l1.93.27-.74,9.41-1.19-.07Zm0-14v-9.74l3.59.67-1.14,9.33-2.45-.26Zm0-14.47v-10l6.91,1.67-1.86,9.26Zm0-148.85v18.55l-9.5-8.74,9.5-9.81Zm0,31.28v10.47l-5.25-4.14,5.25-6.33Zm0,31.54v.87l-.39-.27.39-.6Zm0,50.35v2.67l-1.46-2.21,1.46-.46Zm0,12.13v9.81l-1.46-.34-5.38-6.67,6.84-2.8Zm0,13.54v10l-11.35-2.08,2-10.27,9.37,2.34Zm0,14.74v9.74L71.6,278.68l1.31-10.34,12.82,2.21Zm0,14.13v9.61l-15.47-1,.8-10.41,14.67,1.8Zm0,13.67v9.48L70.39,308l.14-10.41,15.2.8Zm0,14.07v9.41l-14.88,1.74-.65-10.28,15.53-.87Zm0,13.07V335l-13.15,2.33-1.25-10.19,14.4-1.68Zm0,14.28v9.79L76,352,74,341.89l11.69-2.12Zm0,13.47v9.93l-7.31-2.87,5.51-6.6,1.8-.46Zm0,18.33v3.61l-2-.67,2-2.94Zm0,51.62v2.53l-1.19-1.67,1.19-.86Zm0,21.47V456.8l-6.17-7.34,6.17-4.8Zm0,22.59V486.4l-.6.67-9.95-10.2,10.55-9.62ZM68.07,337.9l-18.26,3.2-1.39-11.4,18.4-2.13,1.25,10.33Zm-1.79-14.14-18.39,2.13-.67-11.46,18.46-1,.6,10.34ZM43.71,326,28.7,328l-.78-12.67,15.13-.73L43.71,326Zm24.63-58.21-18.19-3.14-1.46,11.53,18.39,2.07,1.26-10.46Zm-1.79,14.79-18.33-2.26L47.29,292l18.46,1.19.8-10.54ZM44,280.15l-15-2.06L28,291l15.08.8.93-11.6Zm21.9,17.47-18.45-1-.07,11.61,18.46-.13.06-10.48Zm-22.57-.87-15.13-1-.06,12.81,15.06-.2.13-11.61Zm-19.84-1-16.8-1.13-.07,14.47,16.8-.27Z"/><path class="cls-2" d="M261.44,219.79a82.1,82.1,0,1,1-81.89,82.1,82,82,0,0,1,81.89-82.1"/><path class="cls-3" d="M261.77,167.56c-74,0-134,60.15-134,134.33s60,134.33,134,134.33,134-60.14,134-134.33-60-134.33-134-134.33m0,214.93a80.6,80.6,0,1,1,80.38-80.6,80.49,80.49,0,0,1-80.38,80.6"/><path class="cls-4" d="M329.77,288.53H193.09V259.71H329.77Zm-135.32-1.35h134V261.07h-134Z"/><rect class="cls-2" x="193.77" y="288.16" width="135.33" height="27.46"/><path class="cls-4" d="M329.77,344.06H193.09V315.25H329.77Zm-135.32-1.35h134v-26.1h-134Z"/><rect class="cls-5" x="193.77" y="260.39" width="135.33" height="27.47"/><path class="cls-4" d="M329.77,316.3H193.09V287.48H329.77Zm-135.32-1.36h134v-26.1h-134Z"/><rect class="cls-6" x="193.77" y="315.93" width="135.33" height="27.46"/><polygon class="cls-4" points="193.77 260.39 220.86 287.56 220.86 315.39 193.77 343.39 193.77 260.39"/><path class="cls-4" d="M193.09,345.06V258.75l28.44,28.53v28.39Zm1.36-83v79.67l25.73-26.59V287.84Z"/><polygon class="cls-2" points="170.17 298.14 170.76 306.72 160 307.44 171.28 314.24 171.97 324.29 158.8 315.58 138.81 327.55 138.09 317.26 150.91 310.09 148.04 308.23 137.52 308.94 136.92 300.37 170.17 298.14"/><path class="cls-2" d="M172.31,325.05l3.19,8-18.57,7.14c-3.06,1.18-5.5,2.67-4.19,6,1.15,2.88,3.81,2.84,7.17,1.54l18.57-7.15,3.18,8-17.53,6.74c-9.95,3.83-15.75,1.88-19-6.22-3-7.56-1-13.17,9.66-17.29Z"/><polygon class="cls-2" points="181.26 380.4 181.31 380.45 198.91 369.54 204.4 375.84 174.77 392.19 169.18 385.77 181.88 371.11 181.83 371.06 165.16 381.15 159.58 374.73 180.59 348.48 186.07 354.79 172.38 370.19 172.43 370.25 190.14 359.47 194.84 364.85 181.26 380.4"/><path class="cls-2" d="M185.53,401.64,210.9,378.4l7.61,4.52-9,32.91-7.45-4.41,1.37-4.23L196,402.78,192.86,406Zm23.94-12.55L201,397.77l4.72,2.8Z"/><polygon class="cls-2" points="217.12 418.21 227.87 387.19 236.13 389.97 225.39 420.98 217.12 418.21"/><polygon class="cls-2" points="237.75 391.14 261.99 394.11 260.92 402.65 253.13 401.69 250.08 425.67 241.41 424.61 244.45 400.63 236.67 399.67 237.75 391.14"/><path class="cls-2" d="M282.21,424.86l-8.55-31.68,12.41-3.24c7.4-1.94,12.11,1.3,13.87,7.82,1.84,6.82-.28,12-7.69,13.93L288,412.8l2.67,9.86Zm7.29-20.37c2-.51,3.14-1.85,2.4-4.58-.8-3-3.62-2.64-5.41-2.17l-2.39.62,1.9,7.05Z"/><path class="cls-2" d="M328.57,387.2c5.89,9.53,4,18-2.76,22-7.15,4.27-15.29,1.68-21.17-7.85-5.43-8.79-4.11-17.4,3-21.64,8.14-4.85,16.41.06,21,7.45M312.16,397c2.2,3.58,5.85,7.53,9.42,5.39,3.23-1.93,2.39-6.1-.47-10.73-2.35-3.81-6.12-7.1-9.34-5-3.38,2-1.8,6.82.39,10.36"/><polygon class="cls-2" points="345.01 394.44 320.7 372.03 326.67 365.76 345.31 382.94 353.51 374.34 359.19 379.57 345.01 394.44"/><polygon class="cls-2" points="363.68 372.79 335.49 355.32 340.14 348.06 368.35 365.52 363.68 372.79"/><path class="cls-2" d="M359.92,334.39c-3.35-.92-5.82,0-6.75,2.56-1,2.85,1.42,5.65,7.47,7.79,4.4,1.57,8.81,2.29,10.32-1.83,1-2.6-.9-4.65-3.79-6l2.86-7.77c7.82,3.59,11,9.88,8.64,16.38-3,8.15-11.15,10.84-21.34,7.22s-14.47-11.26-11.95-18.13c2.77-7.54,9.06-10.07,17.35-7.86Z"/><polygon class="cls-2" points="383.9 323.55 350.67 321.22 352.21 299.9 359.97 300.44 359.04 313.19 363.79 313.52 364.57 302.74 372.33 303.28 371.56 314.06 376.77 314.44 377.73 301.17 385.49 301.72 383.9 323.55"/><path class="cls-2" d="M187.23,236.8c-1,1.08-1.51,1.62-2.5,2.74a3.35,3.35,0,0,1-2.49,1.05,4.84,4.84,0,0,1-2.78-.62c.53,1.69.8,2.52,1.38,4.17a109.72,109.72,0,0,0-10.05,14.37,7.55,7.55,0,0,1-3.95,3.36,5.71,5.71,0,0,1-4.75-.26,15.83,15.83,0,0,1-4.19-3.81c-1.88-2.22-2.55-3.83-2-4.74.21-.34.31-.52.51-.86.22.12.32.19.54.32,1.37,2.31,2.43,3.62,3.12,4a3.65,3.65,0,0,0,3.21-.06,5.77,5.77,0,0,0,2.83-2.3A115.92,115.92,0,0,1,176.93,239c-.15-.34-2.14-1.86-3.13-3.81-.52-1-.52-3.7-.48-6.51l2.25,2.13a11.31,11.31,0,0,1,1.26,1.54,11.33,11.33,0,0,0,1.27,1.54,2.2,2.2,0,0,0,3.55-.15c.49-.53.73-.8,1.23-1.33l4.35,4.42m-22.66-6.7a17.11,17.11,0,0,1,.41,3.15,7.68,7.68,0,0,1,0,2.91c-.34.44-2.25,1.48-5.77,3.46,0,1.71.07,2.55.15,4.25-1.74,1.54-5.29,4.18-5.7,4a10.59,10.59,0,0,1-.56-3c-.1-1-.52-2.81-.3-3.19s1.59-.88,3-1.76a12.89,12.89,0,0,0,2.44-1.7,15.41,15.41,0,0,0,.17-2.29c0-.81.08-1.65.13-2.54,2.41-1.41,3.62-2.07,6-3.3"/><path class="cls-2" d="M188.36,226.93c1.61,1.89,2.43,2.83,4,4.71-2.7,2.52-4,3.86-6.57,6.66-1.78-1.73-2.67-2.59-4.44-4.33,2.71-3,4.1-4.36,7-7"/><path class="cls-2" d="M199.11,214.75a70.37,70.37,0,0,1,3.87,8.14,94.3,94.3,0,0,0-12.14,10.26l-4.15-4.63a99.62,99.62,0,0,1,10.55-9.13,19.06,19.06,0,0,0-6.59-2.88c-.26-2.66-.35-4-.48-6.7,4.56.86,7.46,2.64,8.94,4.94m-2.7,23.67c-.41-.36-.69-4.47-.39-4.81.56-.6,4-.34,4.29-.61s.28-.74.3-1.78a7.56,7.56,0,0,1,.2-1.88c1.95-.15,2.92-.2,4.83-.24a19.42,19.42,0,0,1,0,5c-1.74.11-2.62.18-4.39.39-.09.72.14,3-.19,3.39-.47.56-4.33.8-4.6.56"/><path class="cls-2" d="M221.17,212.16c-1.43.66-2.14,1-3.54,1.72a28.28,28.28,0,0,1-.49,7.11c-.57,2.88-1.5,4.73-2.89,5.6a13.25,13.25,0,0,1-4.57,1.57,10.94,10.94,0,0,1-5,0l-.32-.47a.77.77,0,0,1,.28-.42,7.74,7.74,0,0,1,2.08-1,8.59,8.59,0,0,0,2-.86,12.37,12.37,0,0,0,3.5-4.36,49.86,49.86,0,0,0,2.27-5.47c-.24-.24-4.16,1.4-4.42,1.44-1.78.27-3.21-.12-4-1.56a15.62,15.62,0,0,1-1.56-7.23c-.11-3.68.7-6,2.24-6.88,2.38-1.33,5.48.8,9,6.34,1.18-.58,1.76-.87,3-1.42,1,2.33,1.44,3.5,2.41,5.83m-9.45-2.72c-.07-.46-1.74-1.36-1.83-1.4-.81-.38-1.56-.7-2.06-.41a2.29,2.29,0,0,0-.66,1.26,1.83,1.83,0,0,0-.07,1.36,1.8,1.8,0,0,0,.11.2c.63.67,2.28.56,3.66-.22.33-.17.87-.68.85-.79"/><path class="cls-2" d="M237.79,206.17c-1.62.43-2.43.66-4,1.16-1.81-1.08-2.73-1.6-4.63-2.59-.35,1.78-.51,2.67-.8,4.44a86.93,86.93,0,0,0-9,3.85c-1-2.32-1.51-3.48-2.51-5.78a90.66,90.66,0,0,1,9.28-4A83.78,83.78,0,0,0,215,198.61c-.64-2.85-1.7-7.45-.93-8.89,3.11-5.89,16.49-9.61,16.56-9.54.39.34-.06,4.17-.22,6.46a102.27,102.27,0,0,0-12,7c2.75,1.34,5.43,2.83,8,4.35,3.59,2.13,6.08,3.07,7.58,2.63.95-.27,1.42-.41,2.37-.66.58,2.47.87,3.71,1.46,6.18"/><path class="cls-2" d="M245.32,182.82c-1.53,2.6-2.25,3.91-3.6,6.55.8,3,1.18,4.53,1.95,7.55a16.22,16.22,0,0,1,.15,3.73,15.62,15.62,0,0,1-.31,3.6,2.74,2.74,0,0,1-.67.72c-2.62.55-3.93.87-6.51,1.6l-1.55-6.15c2.16-.61,3.25-.89,5.43-1.37a1.13,1.13,0,0,0,0-.6,47.91,47.91,0,0,0-2-6.15c-1.12-3-2-5.25-2.49-5.66s-2-.9-2.18-1.3c-.55-1.5,1.79-6,2.84-7.61l.42.2a5.78,5.78,0,0,0,.73,1.79c.29.45,1.54,1,3.61,1.75,1.61.59,3,1.06,4.11,1.35"/><path class="cls-2" d="M257,193.67a16.94,16.94,0,0,1-2.36,10c-1.47-7.34-2.28-11-4.05-18.3.52-2.18,3.78-7.95,3.78-7.95.61.11,2.45,12.84,2.63,16.23"/><path class="cls-2" d="M288.14,179.4a20.54,20.54,0,0,1-2.13,1.81c-1.18.9-1.88,1.35-2.12,1.31-.51-.09-3.1-3-4.58-3.17-.22,0-2.06,1.86-3,2-.64.08-4.75-2.47-4.8-2.92,0-.15,3-3.55,3.92-3.56s4.39,3,4.39,3,1.12-.68,3.6-1.91c1.93,1.37,2.88,2.08,4.73,3.52m4.06,27.78c-2-.61-3-.88-5-1.38a2.93,2.93,0,0,1-2-2.73c-.15-1.2-.24-3.79-.31-3.84a15.37,15.37,0,0,0-2,2.36c-.92,1.22-1.6,1.75-2,1.55a85.24,85.24,0,0,0-8.93-3,29.5,29.5,0,0,1,2.7-6.77,8,8,0,0,1,3.43-2.91c2.07-.94,6.32-2,6.63-2.54a13.21,13.21,0,0,0-.28-1.82c1.77-2.09,2.68-3.12,4.57-5.14l.28.24c.09,1.41.09,4.37-.1,8.85a78.15,78.15,0,0,0,0,8.36c.09.92.8,1.55,2.14,1.92,1.05.3,1.57.45,2.62.77-.66,2.44-1,3.66-1.66,6.11m-7.34-10.91c0-2.07,0-3.11-.09-5.19a10.88,10.88,0,0,1-2.92,2.33,13.56,13.56,0,0,0-2.28,1.16c2.13.63,3.19,1,5.29,1.7"/><path class="cls-2" d="M300.07,203.17c-.81,2.4-1.2,3.6-2,6a82.47,82.47,0,0,0-8-2.62c.62-2.45.93-3.69,1.54-6.14a87.3,87.3,0,0,1,8.48,2.76"/><path class="cls-2" d="M306.09,205.62c-.93,2.35-1.4,3.52-2.33,5.86-3.12-1.38-4.7-2-7.9-3.11.75-2.42,1.13-3.62,1.87-6.05,3.38,1.18,5,1.84,8.36,3.3"/><path class="cls-2" d="M331.45,218.41c-2.66,2.18-4,3.3-6.53,5.57-8.75-6.62-13.42-9.28-23.05-13.3.89-2.37,1.33-3.56,2.22-5.92,1.2.5,1.8.77,3,1.31s1.76.31,2.12-.53,1-2.91,2-6.43a47.08,47.08,0,0,0,1.47-6.19,2.47,2.47,0,0,0-.38-1,1.47,1.47,0,0,1,0-1.27,5.32,5.32,0,0,1,2.5-2.14,14,14,0,0,1,3.3-1.23c.34.33,3.92,7.79,3.81,8.6,0,.28-1.82,1.26-2.72,1.9a3.28,3.28,0,0,1-3,.77l-.23.07a10.69,10.69,0,0,0-.45,1.25,8.08,8.08,0,0,1-.42,1.2c-.35.76-3.48,4.77-3.48,4.77a73.57,73.57,0,0,1,8.9,0c4.59.48,7.55,1.39,8.62,2.13s2,2.43,2.5,4.89a9.63,9.63,0,0,1-.14,5.57m-5.61-1.58a6.46,6.46,0,0,0-.4-3.4,5.34,5.34,0,0,0-1.9-2.83C321,209,317.4,208.3,313,208.91a96,96,0,0,1,12.84,7.92"/><path class="cls-2" d="M343.89,242.07c-1.09-1.29-1.64-1.93-2.76-3.17a6.17,6.17,0,0,1-1-2.13l-.44,0c-2.23.58-4.53,1.38-6.64,2-2.63.73-4.85.36-6.22-.88-.92-.84-1.84-2.55-2.89-5.12a22.57,22.57,0,0,1-1.8-6.1l.41-.61c0-.06.28.07.28.07s.17.59.72,2a7.37,7.37,0,0,0,1.93,3c1.15.95,3.45,1.5,7,2s5.85.4,6.75-.56c.44-.46.75-1.61.88-3.46a28.2,28.2,0,0,1,.25-2.86,9.73,9.73,0,0,1,2.8-.91,22.65,22.65,0,0,1,3.35-.64c.33.35-.67,4.32-.93,6.35a7.82,7.82,0,0,0,2.18,6l.75.89-4.62,4.11"/><path class="cls-2" d="M350.61,250.81c-1.21-1.72-1.83-2.58-3.1-4.23a3.6,3.6,0,0,0,.91-1.4,4.22,4.22,0,0,0-1.26-.2,1.82,1.82,0,0,1-1.28-.47c-1.28-1.62-1.93-2.4-3.27-3.93l4.55-4.2c1.81,2.08,2.7,3.15,4.42,5.37a5.54,5.54,0,0,0,2.78-1.19c.41-.33,1.47-.4,3.21-.15a8.79,8.79,0,0,1,3.47,1.05l-1.05.94c-.81.6-2.91,1.29-6.21,2.24.74,1,1.11,1.52,1.84,2.56l-5,3.61"/><path class="cls-2" d="M375.48,252.4a15.68,15.68,0,0,1-2.93-.8,7.29,7.29,0,0,1-2.66-1.2c-.15-.25.15-4.84-1.07-6.33-.28-.35-2.83-.67-3.8-1.44-.66-.53-1.87-5.73-1.4-6.31a10.91,10.91,0,0,1,2.95.47,6.68,6.68,0,0,1,2.65,1c1,2.17.72,5.26,1.06,5.79a6.76,6.76,0,0,0,1.93,1c.74.32,1.49.65,2.25.95.47,2.76.67,4.14,1,6.9m-9.78,8.52a10.54,10.54,0,0,1-3.86,1c-1.3.11-2.64.2-4,.32-1.87-3.33-2.85-4.92-4.88-8a2.8,2.8,0,0,0,.37-1.06,7.27,7.27,0,0,0-1.28-.3c-1.13-1.67-1.7-2.49-2.86-4.09l4.92-3.72c1.41,1.93,2.1,2.93,3.46,4.94a6,6,0,0,1,2.24-.87,8.73,8.73,0,0,1,7,1.72l-.34.2a12.28,12.28,0,0,1-3.27.81,10.44,10.44,0,0,0-3.47,1c-.07,0-.08.15-.05.34,1,1.56,1.46,2.36,2.41,4a.52.52,0,0,0,.39,0,5.68,5.68,0,0,0,.78-.6,4.79,4.79,0,0,1,.79-.6c.59-.34,1.86-.25,3.8.29a15.73,15.73,0,0,1,3.87,1.53l-6,3.1m10.47-16.39a11.86,11.86,0,0,1-2.58-1,6.92,6.92,0,0,1-2.18-1.31,9.46,9.46,0,0,1-.31-2.58c-.08-1.52-.06-2.34.1-2.45s1,.08,2.47.63a7.46,7.46,0,0,1,2.46,1.17c.23.34.54,5.2,0,5.58"/><text class="cls-7" transform="translate(12.47 -14.93)">  </text></svg>